<svg width="17" height="22" viewBox="0 0 17 22" fill="none" xmlns="http://www.w3.org/2000/svg">
    <path d="M16.7638 2.70168H13.3012V1.43153H10.4125C10.1267 0.692258 9.35648 0.161377 8.45362 0.161377C7.55077 0.161377 6.78055 0.692258 6.49473 1.43153H3.60601V2.70168H0.143433V21.8386H16.7638V2.70168ZM4.99104 2.70168H7.76111V2.0666C7.76111 1.71642 8.07177 1.43153 8.45362 1.43153C8.83547 1.43153 9.14614 1.71642 9.14614 2.0666V2.70168H11.9162V3.97183H4.99104V2.70168ZM15.3788 20.5685H1.52846V3.97183H3.60601V5.24198H13.3012V3.97183H15.3788V20.5685Z" fill="black"/>
    <path d="M4.09576 13.9895L4.99114 13.1684L5.88652 13.9895L6.86583 13.0913L5.9705 12.2703L6.86583 11.4492L5.88652 10.551L4.99114 11.3721L4.09576 10.551L3.11646 11.4492L4.01179 12.2703L3.11646 13.0913L4.09576 13.9895Z" fill="black"/>
    <path d="M12.8117 13.0913L11.9163 13.9124L11.0209 13.0913L10.0416 13.9895L10.937 14.8105L10.0416 15.6316L11.0209 16.5298L11.9163 15.7087L12.8117 16.5298L13.791 15.6316L12.8957 14.8105L13.791 13.9895L12.8117 13.0913Z" fill="black"/>
    <path d="M10.9369 7.18963L11.6294 7.8247H7.76118V16.7158H6.94956C6.66369 15.9766 5.89393 15.4456 4.99112 15.4456C3.84556 15.4456 2.91357 16.3003 2.91357 17.3508C2.91357 18.4014 3.84556 19.2561 4.99112 19.2561C5.89393 19.2561 6.66369 18.7251 6.94956 17.9859H9.14622V9.09485H11.6294L10.9369 9.72993L11.9163 10.6281L14.2807 8.45978L11.9163 6.2915L10.9369 7.18963ZM4.99112 17.9859C4.60927 17.9859 4.29861 17.701 4.29861 17.3508C4.29861 17.0007 4.60927 16.7158 4.99112 16.7158C5.37297 16.7158 5.68364 17.0007 5.68364 17.3508C5.68364 17.701 5.37297 17.9859 4.99112 17.9859Z" fill="black"/>
</svg>
