<svg width="20" height="21" viewBox="0 0 20 21" fill="none" xmlns="http://www.w3.org/2000/svg">
    <path d="M3.92578 16.0855L8.51508 16.0699L18.5319 6.14873C18.925 5.75563 19.1413 5.23358 19.1413 4.67824C19.1413 4.12291 18.925 3.60085 18.5319 3.20775L16.8825 1.55839C16.0963 0.772189 14.7246 0.776349 13.9447 1.55527L3.92578 11.4785V16.0855ZM15.412 3.02888L17.0645 4.67512L15.4037 6.32033L13.7544 4.672L15.412 3.02888ZM6.00568 12.3458L12.2766 6.13417L13.9259 7.78354L7.65608 13.9931L6.00568 13.9983V12.3458Z" fill="black"/>
    <path d="M2.1739 20.2317H16.7332C17.8803 20.2317 18.8131 19.2989 18.8131 18.1518V9.13752L16.7332 11.2174V18.1518H5.45806C5.43102 18.1518 5.40294 18.1622 5.3759 18.1622C5.34159 18.1622 5.30727 18.1529 5.27191 18.1518H2.1739V3.5925H9.29444L11.3743 1.5126H2.1739C1.02683 1.5126 0.0939941 2.44544 0.0939941 3.5925V18.1518C0.0939941 19.2989 1.02683 20.2317 2.1739 20.2317Z" fill="black"/>
</svg>
