<svg width="80" height="80" viewBox="0 0 80 80" fill="none" xmlns="http://www.w3.org/2000/svg">
    <path d="M80 40C80.0071 45.4147 78.9111 50.7742 76.7787 55.7514L76.6461 56.0568C73.0391 64.2626 66.7846 71.0218 58.8829 75.2537C50.9811 79.4855 41.8885 80.9454 33.0592 79.3999C32.8189 79.3573 32.5791 79.3131 32.3396 79.2674C29.8655 78.7878 27.4427 78.0733 25.1041 77.1337C24.7243 76.981 24.3471 76.8228 23.9728 76.6591C23.7172 76.5479 23.4615 76.4331 23.2083 76.3147C16.2804 73.1039 10.4148 67.9794 6.30287 61.5453C2.19095 55.1112 0.00406705 47.6357 0 40C0 17.9089 17.9089 0 40 0C62.0911 0 80 17.9089 80 40Z" fill="#6EB43F" fill-opacity="0.15"/>
    <path opacity="0.2" d="M33.0592 79.4C32.8189 79.3574 32.5791 79.3132 32.3396 79.2674C32.1834 74.7337 31.6473 65.4284 29.8189 55.6828C28.8189 50.3491 27.4308 44.8816 25.5053 39.9941C24.8457 38.3029 24.0922 36.6499 23.2485 35.0426C21.303 31.368 18.9432 28.2745 16.0817 26.1787L16.503 25.6035C18.8828 27.3479 21.0217 29.7968 22.9195 32.9503C23.4888 33.8947 24.0355 34.9022 24.5598 35.9728C25.1219 37.1183 25.658 38.3345 26.1681 39.6213C26.4935 40.4402 26.8079 41.2876 27.1112 42.1633C28.432 45.9657 29.5546 50.3041 30.4793 55.1787C30.684 56.2556 30.8789 57.359 31.0639 58.4887C32.497 67.2426 32.929 75.3361 33.0592 79.4Z" fill="#6EB43F" fill-opacity="0.15"/>
    <path opacity="0.2" d="M23.9727 76.6592C23.717 76.5479 23.4614 76.4331 23.2082 76.3148C22.9608 73.6284 22.5064 70.2958 21.6756 67.1325C21.3118 65.7118 20.8446 64.3195 20.278 62.9669C19.3301 60.7479 18.1028 58.8615 16.5159 57.6982L16.9372 57.1243C18.5987 58.3408 19.8804 60.2639 20.8709 62.5136C21.9869 65.0485 22.7312 67.9988 23.2271 70.8177C23.5951 72.9112 23.8271 74.9337 23.9727 76.6592Z" fill="#6EB43F" fill-opacity="0.15"/>
    <path opacity="0.2" d="M12.102 26.1622C14.0686 26.1622 15.6628 24.5679 15.6628 22.6014C15.6628 20.6348 14.0686 19.0406 12.102 19.0406C10.1355 19.0406 8.54126 20.6348 8.54126 22.6014C8.54126 24.5679 10.1355 26.1622 12.102 26.1622Z" fill="#6EB43F" fill-opacity="0.15"/>
    <path opacity="0.2" d="M13.2486 56.8141C15.2152 56.8141 16.8094 55.2199 16.8094 53.2533C16.8094 51.2868 15.2152 49.6926 13.2486 49.6926C11.2821 49.6926 9.68787 51.2868 9.68787 53.2533C9.68787 55.2199 11.2821 56.8141 13.2486 56.8141Z" fill="#6EB43F" fill-opacity="0.15"/>
    <path opacity="0.2" d="M26.2385 28.5824C25.4834 32.8424 27.1503 36.6998 27.1503 36.6998C27.1503 36.6998 30.0414 33.6503 30.7965 29.3903C31.5516 25.1302 29.8847 21.2729 29.8847 21.2729C29.8847 21.2729 26.9936 24.3224 26.2385 28.5824Z" fill="black"/>
    <path opacity="0.2" d="M14.4045 38.6948C18.4678 40.1806 22.5508 39.2271 22.5508 39.2271C22.5508 39.2271 20.046 35.8646 15.9827 34.3788C11.9194 32.893 7.8363 33.8465 7.8363 33.8465C7.8363 33.8465 10.3412 37.209 14.4045 38.6948Z" fill="#6EB43F" fill-opacity="0.15"/>
    <path opacity="0.2" d="M13.7154 65.8382C16.5635 66.8796 19.4294 66.2002 19.4294 66.2002C19.4294 66.2002 17.6777 63.8324 14.8297 62.791C11.9817 61.7495 9.11572 62.4289 9.11572 62.4289C9.11572 62.4289 10.8674 64.7968 13.7154 65.8382Z" fill="#6EB43F" fill-opacity="0.15"/>
    <circle cx="41.9801" cy="27.9801" r="20.3507" fill="#2F2E41"/>
    <path d="M43.6866 48.8579C52.299 48.8579 59.2807 41.8762 59.2807 33.2638C59.2807 24.6514 52.299 17.6697 43.6866 17.6697C35.0742 17.6697 28.0925 24.6514 28.0925 33.2638C28.0925 41.8762 35.0742 48.8579 43.6866 48.8579Z" fill="#C8825B"/>
    <path d="M35.5958 42.4847C35.5958 42.4847 35.0822 51.9327 34.83 52.8741C34.5777 53.8156 42.3861 60.4484 42.3861 60.4484L50.7665 61.1804L55.8611 53.4644C55.8611 53.4644 53.0459 45.1424 53.8026 42.3182L35.5958 42.4847Z" fill="#C8825B"/>
    <path d="M76.7787 55.7515L76.6461 56.0568C73.0391 64.2626 66.7846 71.0219 58.8829 75.2537C50.9811 79.4855 41.8885 80.9454 33.0591 79.3999C32.8189 79.3573 32.5791 79.3131 32.3396 79.2674C29.8655 78.7878 27.4427 78.0733 25.1041 77.1337C24.7242 76.981 24.3471 76.8228 23.9728 76.6591C23.7171 76.5479 23.4615 76.4331 23.2083 76.3147C20.9127 75.2513 18.7234 73.9721 16.6698 72.4946L14.8213 67.1325L15.8603 66.3396L17.9976 64.7077L20.2781 62.9668L20.871 62.5136L29.8189 55.6828L30.4793 55.1787L35.1302 51.6284L35.1313 51.6272C35.1313 51.6272 40.1609 59.8225 47.471 57.3858C54.781 54.9491 54.6213 47.9621 54.6213 47.9621L76.7787 55.7515Z" fill="#6EB43F" fill-opacity="0.15"/>
    <path d="M30.1633 20.7001C30.1633 20.7001 35.1144 9.97281 44.6039 12.4483C54.0935 14.9239 59.4571 18.6372 59.8697 22.3505C60.2823 26.0638 59.6634 31.6337 59.6634 31.6337C59.6634 31.6337 58.632 24.0008 52.0305 25.6512C45.4291 27.3015 35.1144 26.0638 35.1144 26.0638L33.4641 40.917C33.4641 40.917 31.6074 38.2351 29.5445 39.8855C27.4815 41.5359 23.5619 24.0008 30.1633 20.7001Z" fill="#2F2E41"/>
    <path d="M25.1042 77.1337C24.7243 76.981 24.3472 76.8228 23.9728 76.6591C23.7172 76.5479 23.4616 76.4331 23.2083 76.3148C19.4118 74.5543 15.9142 72.2103 12.8427 69.368C13.9302 67.8863 14.8213 67.1325 14.8213 67.1325H22.1314L23.2273 70.8177L25.1042 77.1337Z" fill="#6EB43F" fill-opacity="0.15"/>
    <path d="M70.3751 55.1144L76.6461 56.2221C74.9679 60.0452 72.7014 63.5819 69.929 66.7037L70.3751 55.1144Z" fill="#6EB43F" fill-opacity="0.15"/>
</svg>
