<svg width="375" height="500" viewBox="0 0 375 500" fill="none" xmlns="http://www.w3.org/2000/svg">
    <g opacity="0.23">
        <path fill-rule="evenodd" clip-rule="evenodd" d="M96.9 42.3089C94.79 42.3089 93.08 40.5989 93.08 38.4889C93.08 36.3789 94.79 34.6689 96.9 34.6689C99.01 34.6689 100.72 36.3789 100.72 38.4889C100.72 40.5989 99.01 42.3089 96.9 42.3089Z" fill="#FFD75D"/>
        <path fill-rule="evenodd" clip-rule="evenodd" d="M64.71 110.179C62.6 110.179 60.89 108.469 60.89 106.359C60.89 104.249 62.6 102.539 64.71 102.539C66.82 102.539 68.53 104.249 68.53 106.359C68.53 108.469 66.82 110.179 64.71 110.179Z" fill="white"/>
        <path fill-rule="evenodd" clip-rule="evenodd" d="M282.39 77.669C281.21 77.669 280.25 76.709 280.25 75.529C280.25 74.349 281.21 73.389 282.39 73.389C283.57 73.379 284.53 74.339 284.53 75.529C284.53 76.709 283.57 77.669 282.39 77.669Z" fill="#D46795"/>
        <path fill-rule="evenodd" clip-rule="evenodd" d="M113.65 87.549C112.374 87.549 111.34 86.5147 111.34 85.239C111.34 83.9632 112.374 82.929 113.65 82.929C114.926 82.929 115.96 83.9632 115.96 85.239C115.96 86.5147 114.926 87.549 113.65 87.549Z" fill="white"/>
        <path fill-rule="evenodd" clip-rule="evenodd" d="M343.8 29.6389C340.96 29.6389 338.66 27.3389 338.66 24.4989C338.66 21.6589 340.96 19.3589 343.8 19.3589C346.64 19.3689 348.94 21.6589 348.94 24.4989C348.94 27.3389 346.64 29.6389 343.8 29.6389Z" fill="#FFD75D"/>
        <path opacity="0.5" fill-rule="evenodd" clip-rule="evenodd" d="M243.5 239.389C241.014 239.389 239 237.375 239 234.889C239 232.403 241.014 230.389 243.5 230.389C245.986 230.389 248 232.403 248 234.889C248 237.375 245.986 239.389 243.5 239.389Z" fill="white"/>
        <path fill-rule="evenodd" clip-rule="evenodd" d="M54.09 247.569C51.83 247.569 50 245.739 50 243.479C50 241.219 51.83 239.389 54.09 239.389C56.35 239.389 58.18 241.219 58.18 243.479C58.18 245.739 56.35 247.569 54.09 247.569Z" fill="white"/>
        <path fill-rule="evenodd" clip-rule="evenodd" d="M134.57 272.529C132.598 272.529 131 270.931 131 268.959C131 266.987 132.598 265.389 134.57 265.389C136.542 265.389 138.14 266.987 138.14 268.959C138.14 270.931 136.542 272.529 134.57 272.529Z" fill="#FFD75D"/>
        <path opacity="0.5" fill-rule="evenodd" clip-rule="evenodd" d="M213 203.389C213 204.493 212.104 205.389 211 205.389C209.896 205.389 209 204.493 209 203.389C209 202.285 209.904 201.389 211 201.389C212.104 201.389 213 202.285 213 203.389Z" fill="white"/>
        <path opacity="0.5" fill-rule="evenodd" clip-rule="evenodd" d="M212 499.389C210.343 499.389 209 498.046 209 496.389C209 494.732 210.343 493.389 212 493.389C213.657 493.389 215 494.732 215 496.389C215 498.046 213.657 499.389 212 499.389Z" fill="#D46795"/>
        <path fill-rule="evenodd" clip-rule="evenodd" d="M12.8 128.989C10.149 128.989 8 126.84 8 124.189C8 121.538 10.149 119.389 12.8 119.389C15.451 119.389 17.6 121.538 17.6 124.189C17.6 126.84 15.451 128.989 12.8 128.989Z" fill="white"/>
        <path fill-rule="evenodd" clip-rule="evenodd" d="M304.08 50.6589C302.252 50.6589 300.77 49.177 300.77 47.3489C300.77 45.5209 302.252 44.0389 304.08 44.0389C305.908 44.0389 307.39 45.5209 307.39 47.3489C307.39 49.177 305.908 50.6589 304.08 50.6589Z" fill="white"/>
        <path opacity="0.5" fill-rule="evenodd" clip-rule="evenodd" d="M295 199.889C305.657 201.605 311.913 204.822 314.218 221.389C314.218 221.389 314 200.964 331 198.06C316.671 197.028 314.053 192.745 312.4 178.389C312.156 193.352 307.049 198.068 295 199.889Z" fill="#8ECAD8"/>
        <path fill-rule="evenodd" clip-rule="evenodd" d="M82 202.358C91.37 203.877 96.862 206.714 98.887 221.327C98.887 221.327 98.6959 203.313 113.634 200.753C101.046 199.827 98.7437 196.054 97.2919 183.389C97.0817 196.589 92.5926 200.744 82 202.358Z" fill="#8ECAD8"/>
        <path fill-rule="evenodd" clip-rule="evenodd" d="M7 272.751C13.6001 273.821 17.4684 275.817 18.9011 286.114C18.9011 286.114 18.7674 273.42 29.2931 271.624C20.4198 270.975 18.8056 268.31 17.774 259.389C17.6212 268.682 14.4597 271.615 7 272.751Z" fill="#8ECAD8"/>
        <path fill-rule="evenodd" clip-rule="evenodd" d="M12 62.3423C18.6001 63.4121 22.4684 65.4084 23.9011 75.7048C23.9011 75.7048 23.7674 63.0109 34.2931 61.2153C25.4102 60.5658 23.796 57.9009 22.774 48.9799C22.6212 58.2734 19.4597 61.2057 12 62.3423Z" fill="#D46795"/>
        <path opacity="0.5" fill-rule="evenodd" clip-rule="evenodd" d="M227 439.889C235.889 441.291 241.098 443.907 243.017 457.389C243.017 457.389 242.84 440.767 257 438.409C245.06 437.557 242.884 434.073 241.505 422.389C241.301 434.563 237.047 438.409 227 439.889Z" fill="#D46795"/>
        <path fill-rule="evenodd" clip-rule="evenodd" d="M58.4392 77.7966C65.0393 78.8663 68.9076 80.8626 70.3403 91.159C70.3403 91.159 70.2066 78.4652 80.7323 76.6695C71.859 76.02 70.2448 73.3551 69.2132 64.4341C69.0604 73.7276 65.8989 76.6599 58.4392 77.7966Z" fill="#8ECAD8"/>
        <path fill-rule="evenodd" clip-rule="evenodd" d="M263.174 13.3625C269.774 14.4322 273.643 16.4285 275.076 26.725C275.076 26.725 274.942 14.0311 285.468 12.2354C276.594 11.5859 274.98 8.92105 273.948 0C273.796 9.29356 270.634 12.2259 263.174 13.3625Z" fill="#8ECAD8"/>
        <path fill-rule="evenodd" clip-rule="evenodd" d="M327.16 64.4341C333.76 65.5038 337.628 67.5001 339.061 77.7965C339.061 77.7965 338.927 65.1027 349.453 63.307C340.579 62.6575 338.965 60.0022 337.934 51.0716C337.781 60.3652 334.619 63.2974 327.16 64.4341Z" fill="#8ECAD8"/>
    </g>
</svg>
