<svg width="40" height="22" viewBox="0 0 40 22" fill="none" xmlns="http://www.w3.org/2000/svg">
    <rect width="40" height="22" rx="11" fill="#6EB43F"/>
    <circle cx="29" cy="11" r="10" fill="white"/>
    <path fill-rule="evenodd" clip-rule="evenodd" d="M31.0385 8.42926C31.3926 7.96204 32.0718 7.86049 32.5555 8.20244C33.0393 8.54439 33.1444 9.20035 32.7904 9.66757L29.4312 14.1005C29.0688 14.5787 28.3697 14.6323 27.9386 14.215L25.317 11.677C24.8936 11.2671 24.8944 10.6033 25.3188 10.1944C25.7432 9.78546 26.4305 9.78625 26.8539 10.1961L28.4954 11.7853L31.0385 8.42926Z" fill="white"/>
    <mask id="mask0" mask-type="alpha" maskUnits="userSpaceOnUse" x="25" y="8" width="8" height="7">
        <path fill-rule="evenodd" clip-rule="evenodd" d="M31.0385 8.42926C31.3926 7.96204 32.0718 7.86049 32.5555 8.20244C33.0393 8.54439 33.1444 9.20035 32.7904 9.66757L29.4312 14.1005C29.0688 14.5787 28.3697 14.6323 27.9386 14.215L25.317 11.677C24.8936 11.2671 24.8944 10.6033 25.3188 10.1944C25.7432 9.78546 26.4305 9.78625 26.8539 10.1961L28.4954 11.7853L31.0385 8.42926Z" fill="white"/>
    </mask>
    <g mask="url(#mask0)">
    </g>
</svg>
