<svg width="167" height="137" viewBox="0 0 167 137" fill="none" xmlns="http://www.w3.org/2000/svg">
    <path d="M117.589 122.729C120.552 118.293 116.197 118.042 116.197 118.042C116.197 118.042 123.885 110.555 122.804 107.403C121.722 104.252 117.739 107.142 117.739 107.142C117.739 107.142 122.682 96.1227 120.351 95.015C116.01 92.9517 109.919 104.808 109.919 104.808C109.919 104.808 111.228 99.6579 108.238 99.8247C103.729 100.077 103.916 111.727 103.916 111.727C103.916 111.727 103.406 107.26 100.689 108.711C95.8138 111.315 97.3977 135.672 97.3977 135.672C97.3977 135.672 114.626 127.166 117.589 122.729Z" fill="#355389"/>
    <path d="M103.944 109.177C103.944 109.177 103.73 100.078 108.238 99.8255C111.228 99.6578 109.919 104.809 109.919 104.809C109.919 104.809 116.009 92.9535 120.352 95.0158L97.3786 135.483C97.2156 132.657 95.504 109.247 99.7076 106.91C101.829 105.731 103.944 109.177 103.944 109.177Z" fill="#466EB6"/>
    <path d="M115.582 135.968C119.23 134.407 116.616 132.478 116.616 132.478C116.616 132.478 124.45 130.936 125.054 128.53C125.658 126.124 122.044 126.316 122.044 126.316C122.044 126.316 129.555 121.445 128.551 119.806C126.68 116.753 118.07 121.669 118.07 121.669C118.07 121.669 120.977 118.989 119.044 117.877C116.129 116.2 111.518 123.542 111.518 123.542C111.518 123.542 111.804 121.733 109.52 121.532C105.423 121.172 97.8427 135.777 97.8427 135.777C97.8427 135.777 111.934 137.53 115.582 135.968Z" fill="#355389"/>
    <path d="M111.519 123.542C111.519 123.542 116.214 114.839 119.128 116.515C121.061 117.628 118.775 121.28 118.775 121.28C118.775 121.28 126.682 116.752 128.553 119.805L97.801 135.699C98.8461 133.871 105.601 119.881 109.429 120.217C111.712 120.417 111.519 123.542 111.519 123.542Z" fill="#466EB6"/>
    <path d="M40.8191 122.284C37.8559 117.848 42.2113 117.597 42.2113 117.597C42.2113 117.597 34.5234 110.11 35.6046 106.958C36.6867 103.807 40.7228 106.818 40.7228 106.818C40.7228 106.818 35.7259 95.6786 38.0568 94.571C42.3983 92.5077 48.4894 104.364 48.4894 104.364C48.4894 104.364 47.1805 99.2138 50.1705 99.3807C54.6796 99.6328 54.4926 111.283 54.4926 111.283C54.4926 111.283 55.0017 106.816 57.7196 108.267C62.5952 110.871 61.0104 135.227 61.0104 135.227C61.0104 135.227 43.7822 126.721 40.8191 122.284Z" fill="#355389"/>
    <path d="M54.4641 108.732C54.4641 108.732 54.6779 99.6329 50.1697 99.3807C47.1797 99.213 48.4887 104.364 48.4887 104.364C48.4887 104.364 42.3985 92.5077 38.056 94.571L61.0291 135.038C61.193 132.212 62.9046 108.801 58.7001 106.465C56.5784 105.286 54.4641 108.732 54.4641 108.732Z" fill="#466EB6"/>
    <path d="M42.8262 135.523C39.178 133.962 41.7922 132.033 41.7922 132.033C41.7922 132.033 33.958 130.491 33.3535 128.085C32.7491 125.679 36.4889 125.915 36.4889 125.915C36.4889 125.915 28.8509 121 29.8553 119.361C31.7262 116.308 40.3361 121.224 40.3361 121.224C40.3361 121.224 37.4294 118.544 39.3623 117.432C42.2773 115.755 46.8882 123.097 46.8882 123.097C46.8882 123.097 46.6022 121.288 48.8859 121.087C52.9858 120.727 60.5654 135.333 60.5654 135.333C60.5654 135.333 46.4753 137.084 42.8262 135.523Z" fill="#355389"/>
    <path d="M46.3987 121.058C46.3987 121.058 42.1951 114.394 39.2801 116.071C37.3472 117.184 39.6337 120.836 39.6337 120.836C39.6337 120.836 31.7264 116.308 29.8564 119.361L60.6082 135.255C59.5631 133.426 52.475 118.3 48.6472 118.636C46.3635 118.837 46.3987 121.058 46.3987 121.058Z" fill="#466EB6"/>
    <path d="M144.798 91.3304C145.689 90.9115 146.618 91.0691 147.409 91.6651C149.65 93.352 147.696 95.2114 150.248 98.411C151.04 99.4056 151.999 100.208 152.475 101.372C153.14 103.003 152.348 103.786 151.079 104.568C145.007 108.304 141.825 100.632 141.94 98.8773C142.024 97.5703 142.57 94.5496 142.843 93.8924C143.267 92.871 143.698 91.8477 144.798 91.3304Z" fill="#13375B"/>
    <path d="M140.022 130.597C140.052 130.664 140.331 130.903 140.365 130.971C140.277 132.641 139.253 133.666 138.283 134.404C138.47 133.558 138.917 132.578 138.848 132.394C138.739 132.1 138.308 130.757 137.431 129.08C138.255 128.958 138.532 128.444 139.188 127.915C139.487 129.271 139.958 130.457 140.022 130.597Z" fill="#F7A491"/>
    <path d="M148.103 112.021C148.103 112.021 145.543 114.486 144.583 115.402C143.623 116.319 137.7 120.585 137.617 120.795C137.555 120.951 138.964 125.856 139.873 128.474C139.327 129.033 138.124 129.582 137.412 129.763C135.62 126.339 133.419 120.495 133.419 119.702C133.419 118.411 142.935 108.09 142.935 108.09L148.103 112.021Z" fill="#355389"/>
    <path d="M155.716 119.457C155.092 119.063 154.714 118.594 154.015 118.328C154.566 117.53 155.641 115.61 155.728 115.152C155.938 114.067 156.184 113.907 156.184 113.907C156.184 113.907 159.815 115.137 160.057 115.482C160.3 115.828 158.113 115.27 157.435 115.932C157.265 116.097 156.143 118.286 155.716 119.457Z" fill="#F7A491"/>
    <path d="M155.775 113.825C155.849 113.495 156.039 113.395 156.086 113.383C156.215 113.352 160.251 114.719 160.932 115.209C160.979 115.243 161.061 115.347 161.074 115.372C161.447 116.069 158.12 116.202 157.642 115.897C157.217 115.626 156.954 115.39 155.687 115.393C155.405 115.394 155.711 114.118 155.775 113.825Z" fill="#3C8F7C"/>
    <path d="M146.343 107.425C146.325 107.434 146.37 107.609 146.373 107.623C146.796 109.273 149.054 108.636 149.986 111.501C150.644 113.525 151.609 121.096 151.609 121.096C151.609 121.096 152.292 119.795 154.415 117.4C154.58 117.214 156.671 118.652 156.671 118.652C155.116 122.78 151.296 126.135 150.78 125.897C147.286 124.293 143.09 111.63 143.095 111.631C142.698 110.858 141.831 109.25 141.831 109.25C141.831 109.25 146.342 107.425 146.343 107.425Z" fill="#466EB6"/>
    <path d="M139.18 91.4538C138.812 90.3388 139.177 85.023 139.212 84.6457C139.247 84.2675 140.525 83.2359 140.324 82.9384C140.123 82.6417 138.357 82.3998 138.061 82.4573C137.765 82.5157 137.189 82.4619 136.953 82.7011C136.922 82.7326 137.515 84.1313 137.503 84.3482C137.419 85.8294 136.579 90.5445 136.854 91.819C137.17 93.2854 140.312 97.9699 140.312 97.9699L141.664 95.9243C141.664 95.9243 139.548 92.5698 139.18 91.4538Z" fill="#F7A491"/>
    <path d="M156.252 98.121C157.495 98.223 162.005 97.8476 162.18 97.8272C162.354 97.8068 163.51 95.8482 163.701 96.0586C163.893 96.269 163.059 97.03 163.316 97.2275C163.575 97.4249 166.348 96.9828 166.311 97.1885C166.242 97.5723 164.624 97.5241 164.625 97.7095C164.627 97.8948 166.318 97.6056 166.434 97.9134C166.549 98.2211 164.807 98.0394 164.737 98.1766C164.668 98.3138 166.353 98.5659 166.18 98.8523C166.087 99.008 164.687 98.5928 164.694 98.805C164.7 99.0173 165.722 99.4993 165.596 99.668C165.47 99.8367 164.795 99.1499 164.202 99.1415C163.61 99.1332 163.185 98.8236 162.24 99.0831C161.294 99.3427 158.069 100.645 156.051 100.549C154.033 100.453 149.573 100.254 149.573 100.254L149.348 97.8781C149.348 97.8781 155.009 98.019 156.252 98.121Z" fill="#F7A491"/>
    <path d="M140.875 100.029C140.592 99.0581 139.562 97.6186 139.345 97.2117C139.345 97.2117 140.743 95.6258 141.779 95.6397C141.779 95.6397 142.882 97.0337 143.7 97.461C143.712 97.4583 143.99 97.5852 144.112 97.5843C144.902 97.5788 147.663 97.4953 148.178 97.6492L147.887 101.921C147.739 102.166 147.558 107.079 147.253 107.483C146.947 107.887 142.503 109.728 141.766 109.253C141.737 109.234 141.196 105.687 141.04 103.797C140.963 102.862 140.833 100.34 140.875 100.029Z" fill="#50BFA5"/>
    <path d="M150.971 97.5129C150.971 97.5129 151.486 100.082 151.07 100.701C151.07 100.701 147.774 101.192 147.868 101.462L146.741 97.7483C147.25 97.5046 150.971 97.5129 150.971 97.5129Z" fill="#50BFA5"/>
    <path d="M145.685 98.0783C145.743 98.6632 145.467 100.547 144.231 100.553C142.995 100.56 143.996 98.158 144.112 97.5852C144.229 97.0124 144.256 95.2392 144.256 95.2392L145.914 96.0113C145.914 96.0113 145.628 97.4934 145.685 98.0783Z" fill="#F7A491"/>
    <path d="M144.257 95.2383L145.914 96.0113C145.914 96.0113 145.856 96.3144 145.797 96.701C145.072 96.8465 144.546 96.5777 144.231 96.1281C144.251 95.6434 144.257 95.2383 144.257 95.2383Z" fill="#F47458"/>
    <path d="M147.391 93.0444C147.625 93.8128 147.359 95.7972 145.709 96.2755C144.06 96.7547 143.345 95.1836 143.685 93.9555C144.025 92.7274 144.764 91.172 146.519 91.9209C146.519 91.9209 147.158 92.276 147.391 93.0444Z" fill="#F7A491"/>
    <path d="M143.886 94.0425C144.077 94.024 144.207 93.7413 144.175 93.4113C144.142 93.0813 143.961 92.8292 143.768 92.8478C143.577 92.8672 143.447 93.1499 143.479 93.479C143.512 93.809 143.693 94.0611 143.886 94.0425Z" fill="#F7A491"/>
    <path d="M141.465 131.33C141.75 131.511 141.779 131.724 141.773 131.773C141.759 131.902 139.198 135.293 138.432 135.776C138.359 135.822 138.204 135.828 138.158 135.813C137.717 135.66 138.332 132.936 138.883 132.383C139.241 132.026 139.608 131.832 140.036 130.637C140.131 130.372 141.211 131.17 141.465 131.33Z" fill="#3C8F7C"/>
    <path d="M144.891 81.5767C144.659 81.6592 144.483 81.8511 144.419 82.0893L143.175 86.7674C143.016 87.3671 142.239 87.5228 141.863 87.0297L138.92 83.1877C138.77 82.9921 138.534 82.8827 138.288 82.8957L133.471 83.1469C132.854 83.1794 132.466 82.486 132.816 81.9735L135.542 77.9813C135.681 77.7783 135.711 77.5188 135.622 77.288L133.89 72.7656C133.667 72.1854 134.203 71.6023 134.797 71.7785L139.424 73.1531C139.66 73.2235 139.915 73.1725 140.106 73.0168L143.851 69.9701C144.331 69.5789 145.051 69.9117 145.067 70.5336L145.202 75.3758C145.208 75.6223 145.336 75.8503 145.542 75.9847L149.59 78.6246C150.11 78.9629 150.017 79.7517 149.435 79.9593L144.891 81.5767Z" fill="#F7CC7F"/>
    <path d="M139.29 84.4612L138.714 83.6742C138.998 83.6195 140.1 82.701 140.294 82.9865C140.463 83.2358 139.545 84.0255 139.29 84.4612Z" fill="#F7A491"/>
    <path d="M147.34 94.4328C148.054 94.8323 147.755 95.8139 147.755 95.8139C147.755 95.8139 148.403 93.5346 147.839 92.8024C147.274 92.0701 146.326 91.8208 146.326 91.8208C146.326 91.8208 146.625 94.0342 147.34 94.4328Z" fill="#13375B"/>
    <path d="M146.919 95.5098C147.113 95.6405 147.428 95.5135 147.622 95.2252C147.816 94.937 147.816 94.5968 147.62 94.4661C147.426 94.3345 147.11 94.4624 146.917 94.7507C146.723 95.0389 146.723 95.3791 146.919 95.5098Z" fill="#F7A491"/>
    <path d="M138.919 83.1876L139.128 83.4601C138.975 83.4184 138.681 83.3359 138.396 83.5306C138.396 83.5306 138.49 83.3285 138.906 83.1718C138.911 83.1774 138.915 83.182 138.919 83.1876Z" fill="#F47257"/>
    <path d="M13.2122 109.529C12.5901 110.311 12.0069 111.236 11.806 112.244C11.5005 113.777 11.7551 121.354 11.4894 121.893C9.20759 124.127 7.55522 129.734 7.09051 131.444C6.9998 131.778 6.81651 132.078 6.56287 132.312L6.66469 134.244L7.79868 135.29C7.79868 135.29 7.54688 133.715 8.05047 132.546C8.05047 132.546 13.7963 123.833 14.1369 123.167C14.7886 121.27 17.1612 111.553 17.1612 111.553L17.712 109.319C17.712 109.32 14.7238 107.764 14.7192 107.762C14.7747 107.785 13.9833 108.806 13.2122 109.529Z" fill="#F7A491"/>
    <path d="M6.10012 134.472C6.16121 134.904 6.54353 135.883 6.96657 135.944C7.06285 135.958 8.70689 136.08 8.69486 135.874C8.6856 135.716 8.09038 135.492 7.81452 135.301C7.33685 134.971 6.59537 132.28 6.59537 132.28C6.59537 132.28 5.35215 132.588 5.32068 132.934C5.32068 132.934 6.0381 134.041 6.10012 134.472Z" fill="#F47458"/>
    <path d="M23.3545 120.435C23.3749 121.629 22.7075 128.329 22.8935 133.908C22.9 134.109 23.1546 134.377 23.5258 134.547C23.7341 134.643 24.7422 135.094 24.7422 135.094L24.881 135.455L21.4096 135.207L21.3606 134.258C21.3606 134.258 19.9794 125.912 20.1201 123.552C20.1423 123.181 20.3219 120.961 20.3219 120.961L16.1479 112.892L18.7732 109.439L19.6304 111.119C19.6304 111.119 23.3314 119.042 23.3545 120.435Z" fill="#F7A491"/>
    <path d="M16.4263 91.2139C15.9579 90.4575 15.1775 89.8958 14.3287 89.7132C12.6531 89.3536 10.3889 90.0163 10.45 91.7922C9.80013 92.9852 9.77513 94.6907 10.7693 95.5981C10.4231 97.2026 11.9237 98.7533 13.8751 98.6968C14.5545 99.8183 15.8487 100.539 17.1354 100.386C17.4446 100.348 17.9157 100.272 17.9935 100.291C17.8954 100.272 20.0606 101.935 21.8953 99.379C23.7671 96.7716 22.4517 93.6136 19.9773 93.3355C19.4163 91.8395 17.9518 90.9339 16.4263 91.2139Z" fill="#355389"/>
    <path d="M20.0891 83.7513L20.2335 83.5399C20.2511 83.5029 20.265 83.4713 20.2724 83.45C20.3354 83.2628 20.2872 82.6612 20.2872 82.6612L19.0209 82.968L18.7432 83.6994C18.4618 83.5687 17.9804 82.588 17.8045 82.8234C17.5971 83.1015 18.3794 84.3074 18.4405 84.6346C18.5025 84.9609 17.7684 90.031 17.5555 91.0377C17.3435 92.0443 15.9105 94.8546 15.9105 94.8546L17.2204 96.5194C17.2204 96.5194 19.3208 92.2343 19.4587 90.9264C19.4735 90.7892 19.4893 90.5825 19.5069 90.3276L19.7559 84.3621C19.8466 84.148 19.9577 83.9431 20.0891 83.7513Z" fill="#F7A491"/>
    <path d="M9.47246 98.9164C9.47246 98.9164 8.21258 101.02 7.20357 102.734C6.20288 102.372 3.61555 100.683 3.48781 100.606C3.36006 100.528 3.0768 98.6198 2.8574 98.7218C2.63801 98.8228 3.02588 99.7293 2.76021 99.797C2.49453 99.8646 0.502423 98.5318 0.461692 98.7097C0.384859 99.0425 1.65029 99.5736 1.58642 99.7219C1.52254 99.8702 0.314505 99.0415 0.12196 99.2482C-0.0705858 99.4549 1.33555 99.9221 1.34296 100.057C1.35036 100.193 -0.0354089 99.8007 0.000693366 100.092C0.0201331 100.249 1.24113 100.409 1.1643 100.577C1.08747 100.745 0.136771 100.773 0.176577 100.953C0.216382 101.133 0.969902 100.818 1.42997 101.02C1.89005 101.223 2.32235 101.123 2.96479 101.666C3.6063 102.207 6.76201 105.301 7.74603 105.035C8.60508 104.803 11.0286 100.237 11.0286 100.237L9.47246 98.9164Z" fill="#F7A491"/>
    <path d="M11.1496 120.638C11.1496 120.636 11.1469 120.638 11.1469 120.638C11.1482 120.639 11.1482 120.639 11.1496 120.638Z" fill="#F47458"/>
    <path d="M17.6308 95.7649C17.6308 95.7649 16.5394 94.3755 15.6535 94.4812C15.6535 94.4812 14.4631 96.4582 13.7855 96.524C13.1088 96.5908 10.7269 96.6937 10.3094 96.9476C9.89196 97.2016 8.12109 99.9239 8.12109 99.9239C8.12109 99.9239 9.71237 101.552 10.353 101.548C10.353 101.548 10.6936 100.877 10.8288 100.73C10.925 101.042 12.408 105.853 12.4062 106.942L12.4173 106.952C13.804 108.078 15.8266 107.817 16.8949 106.375C16.8949 106.375 16.769 104.875 16.8403 103.492C16.9532 101.326 17.3911 100.175 16.4413 98.2722C16.5413 97.6632 17.4827 96.1385 17.6308 95.7649Z" fill="#F47458"/>
    <path d="M16.8957 106.376C16.4476 106.558 16.0246 106.716 15.5451 106.808C14.5036 107.009 13.4604 106.977 12.406 106.942C12.406 106.981 12.4042 107.017 12.3995 107.045C12.2783 107.912 11.1304 109.253 10.8943 111.882C10.6259 114.866 10.7879 120.049 10.8795 120.389C15.7089 119.801 22.7887 118.324 24.1596 116.883L16.8957 106.376Z" fill="#466EB6"/>
    <path d="M19.0785 83.7801C18.6907 83.6809 18.5129 83.5373 18.5129 83.5373C18.5129 83.5373 18.7268 83.9284 19.0434 84.099C19.5886 84.3928 19.9228 83.5725 19.9228 83.5725C19.9228 83.5725 19.4664 83.8784 19.0785 83.7801Z" fill="#F47458"/>
    <path d="M15.1402 80.5331C15.3549 80.4886 15.578 80.5582 15.7354 80.7176L18.8235 83.8616C19.2197 84.2648 19.8853 84.0192 19.9501 83.4455L20.4537 78.975C20.4796 78.747 20.611 78.5477 20.8045 78.4411L24.6138 76.3472C25.1025 76.0784 25.0831 75.3406 24.5814 75.0978L20.6694 73.2078C20.4703 73.1114 20.3287 72.9186 20.2917 72.6934L19.5576 68.2554C19.4632 67.6862 18.7856 67.4758 18.4116 67.8994L15.4901 71.202C15.341 71.3698 15.1226 71.4513 14.9059 71.418L10.6431 70.7691C10.096 70.6857 9.69703 71.2938 9.96641 71.798L12.0724 75.729C12.1798 75.9292 12.1862 76.172 12.089 76.3769L10.1886 80.4136C9.94419 80.9308 10.3746 81.5166 10.9162 81.4053L15.1402 80.5331Z" fill="#F7CC7F"/>
    <path d="M12.7652 96.6937C12.7143 97.2368 12.9596 98.9887 14.0631 98.9942C15.1665 98.9998 14.2723 96.7678 14.1686 96.2349C14.0649 95.7028 14.0399 94.0539 14.0399 94.0539L12.5607 94.7722C12.5607 94.7722 12.8162 96.1496 12.7652 96.6937Z" fill="#F7A491"/>
    <path d="M14.0388 94.0539L12.5596 94.7722C12.5596 94.7722 12.6114 95.054 12.6642 95.4127C13.3122 95.549 13.7815 95.2987 14.062 94.8807C14.0444 94.4302 14.0388 94.0539 14.0388 94.0539Z" fill="#F47458"/>
    <path d="M11.2405 92.0147C11.0322 92.7293 11.2692 94.5738 12.742 95.0187C14.2148 95.4637 14.8526 94.0038 14.549 92.8618C14.2463 91.7199 13.5862 90.2739 12.019 90.97C12.019 90.97 11.4488 91.3 11.2405 92.0147Z" fill="#F7A491"/>
    <path d="M14.3712 92.9424C14.1999 92.9248 14.0842 92.6625 14.1129 92.3557C14.1416 92.0489 14.3036 91.8144 14.4758 91.832C14.647 91.8496 14.7627 92.1119 14.734 92.4187C14.7053 92.7255 14.5433 92.9601 14.3712 92.9424Z" fill="#F7A491"/>
    <path d="M11.6636 94.3068C11.4896 94.4282 11.2091 94.3105 11.036 94.0427C10.8629 93.7748 10.8638 93.4587 11.0378 93.3363C11.2109 93.214 11.4924 93.3326 11.6655 93.6005C11.8386 93.8684 11.8377 94.1845 11.6636 94.3068Z" fill="#F7A491"/>
    <path d="M18.6535 82.9263C18.6646 83.0737 19.8439 82.4666 19.8772 82.563C19.9032 82.639 18.5572 82.9922 18.6275 83.1275C18.6757 83.2202 19.8837 82.9653 19.9161 83.0246C19.9661 83.1173 18.908 83.1571 18.9765 83.2591C19.0552 83.3777 20.0633 83.3295 20.0633 83.3295C20.0633 83.3295 20.266 83.0024 20.2873 82.88C20.2966 82.8281 20.2966 82.7549 20.292 82.6714C20.2883 82.6038 20.3179 82.5463 20.3086 82.4703C20.2707 82.1644 20.2957 81.9207 20.1374 81.8901C19.8522 81.8345 18.6433 82.7845 18.6535 82.9263Z" fill="#F7A491"/>
    <path d="M18.077 83.1739L17.7799 82.9523C17.7799 82.9523 17.7549 82.906 17.79 82.8291C17.8252 82.7512 18.5167 82.411 18.5269 82.6168L18.077 83.1739Z" fill="#F7A491"/>
    <path d="M25.7846 135.869C25.9466 135.854 25.9864 135.724 25.9299 135.643C25.8142 135.476 25.3023 135.355 24.7274 135.09C23.7193 135.194 21.5227 134.505 21.3634 134.273C21.2718 134.736 21.3088 135.85 21.3995 135.869H25.7846Z" fill="#F47458"/>
    <path d="M18.951 83.9247C19.1973 84.3501 19.0834 84.7023 19.0834 84.7023L18.0642 83.4464L18.1096 83.1349C18.1096 83.1349 18.7048 83.4992 18.951 83.9247Z" fill="#F7A491"/>
    <path d="M104.798 34.8988C104.353 35.4373 103.932 35.9926 103.533 36.5626C103.808 36.5431 104.084 36.5302 104.364 36.5302C107.11 36.5302 109.665 37.4988 111.558 39.2562C113.251 40.8273 114.183 42.8414 114.183 44.9279C114.183 47.0134 113.251 49.0276 111.558 50.5996C109.664 52.358 107.109 53.3256 104.364 53.3256C101.625 53.3256 99.0762 52.3626 97.1841 50.6126C97.0462 51.0214 96.9092 51.4264 96.7721 51.8343C95.8464 52.3042 95.1957 53.4109 95.1957 54.7012C95.1957 56.4178 96.3463 57.81 97.7654 57.81C98.8818 57.81 99.8288 56.948 100.184 55.7449C101.49 56.1805 102.897 56.4206 104.365 56.4206C111.202 56.4206 116.744 51.2744 116.744 44.927C116.742 38.8595 111.677 33.8941 105.259 33.4677C105.153 33.9654 105.057 34.4808 104.798 34.8988Z" fill="#E0973F"/>
    <path d="M50.203 34.8988C50.6483 35.4373 51.0685 35.9926 51.4675 36.5626C51.1926 36.5431 50.9167 36.5302 50.6372 36.5302C47.8906 36.5302 45.3357 37.4988 43.4426 39.2562C41.7495 40.8273 40.8173 42.8414 40.8173 44.9279C40.8173 47.0134 41.7495 49.0276 43.4426 50.5996C45.3366 52.358 47.8915 53.3256 50.6372 53.3256C53.3763 53.3256 55.9248 52.3626 57.8169 50.6126C57.9548 51.0214 58.0918 51.4264 58.2288 51.8343C59.1545 52.3042 59.8053 53.4109 59.8053 54.7012C59.8053 56.4178 58.6546 57.81 57.2355 57.81C56.1192 57.81 55.1722 56.948 54.8167 55.7449C53.5105 56.1805 52.1044 56.4206 50.6362 56.4206C43.799 56.4206 38.2568 51.2744 38.2568 44.927C38.2587 38.8595 43.3241 33.8941 49.742 33.4677C49.8485 33.9654 49.9438 34.4808 50.203 34.8988Z" fill="#E0973F"/>
    <path d="M107.04 35.3317C107.04 49.6719 95.4273 61.2998 81.1058 61.2998C74.5093 61.2118 69.9835 61.8949 63.7202 59.1188C54.6965 55.1563 48.2 46.0773 48.2 35.3317V32.159H107.04V35.3317Z" fill="#F7CC7F"/>
    <path d="M63.7396 59.1272L73.0623 32.158H63.3573L55.885 53.778C58.1419 56.0174 60.7986 57.836 63.7201 59.1188C63.7266 59.1216 63.7331 59.1244 63.7396 59.1272Z" fill="#FAE0B2"/>
    <path d="M79.622 32.158H74.7472L65.3125 59.7658C66.8769 60.3423 68.3451 60.7084 69.7846 60.9383L79.622 32.158Z" fill="#FAE0B2"/>
    <path d="M62.2955 32.159H59.9776L53.3218 50.8268C53.83 51.508 54.3697 52.1634 54.939 52.7909L62.2955 32.159Z" fill="#FAE0B2"/>
    <path d="M50.9157 30.3598C48.9606 30.3598 47.3675 31.4489 47.2555 32.8217H108.131C108.018 31.4489 106.425 30.3598 104.47 30.3598H50.9157Z" fill="#F7CC7F"/>
    <path d="M70.7065 76.1164H83.956L87.7107 60.5407H67.6758L70.7065 76.1164Z" fill="#F7CC7F"/>
    <path d="M86.8639 64.0565H68.3601L67.676 60.5417H87.7109L86.8639 64.0565Z" fill="#B75742"/>
    <path d="M67.676 95.3848L69.1775 87.6535L70.704 79.8082H83.9572L85.8484 87.6535L87.7109 95.3848H67.676Z" fill="#F7CC7F"/>
    <path d="M67.676 95.3848L69.1775 87.6535H85.8484L87.7109 95.3848H67.676Z" fill="#B75742"/>
    <path d="M68.3808 76.1163C67.5912 76.1163 66.9515 76.7568 66.9515 77.5475V78.3771C66.9515 79.1677 67.5921 79.8091 68.3808 79.8091H86.2802C87.0698 79.8091 87.7094 79.1677 87.7094 78.3771V77.5475C87.7104 76.7568 87.0698 76.1163 86.2811 76.1163H68.3808Z" fill="#FAE0B2"/>
    <path d="M65.5228 94.3301V90.0738C65.5228 89.615 65.894 89.2433 66.3523 89.2433H88.359C88.8172 89.2433 89.1884 89.615 89.1884 90.0738V94.3301H89.1875H65.5228Z" fill="#F7CC7F"/>
    <path d="M97.0081 98.9183H57.7019V97.3713C57.7019 95.5879 58.7887 94.141 60.1282 94.141H94.5818C95.9213 94.141 97.0081 95.5879 97.0081 97.3713V98.9183Z" fill="#F7CC7F"/>
    <path d="M65.7131 98.9183H64.0728L65.316 94.141H66.9563L65.7131 98.9183Z" fill="#FAE0B2"/>
    <path d="M63.3642 98.9183H61.722L62.9671 94.141H64.6075L63.3642 98.9183Z" fill="#FAE0B2"/>
    <path d="M67.8014 98.9183H66.1583L67.4043 94.141H69.0447L67.8014 98.9183Z" fill="#FAE0B2"/>
    <path d="M111.643 135.813H45.7794V134.266C45.7794 132.482 47.6003 131.035 49.8442 131.035H107.578C109.822 131.035 111.643 132.482 111.643 134.266V135.813Z" fill="#F7CC7F"/>
    <path d="M59.2021 135.813H56.4537L58.5375 131.035H61.2859L59.2021 135.813Z" fill="#FAE0B2"/>
    <path d="M55.2671 135.813H52.515L54.6015 131.035H57.3509L55.2671 135.813Z" fill="#FAE0B2"/>
    <path d="M62.7012 135.813H59.9491L62.0365 131.035H64.785L62.7012 135.813Z" fill="#FAE0B2"/>
    <path d="M94.4709 58.7656C94.4709 60.7881 92.8361 62.4251 90.819 62.4251H64.4347C62.4148 62.4251 60.78 60.7881 60.78 58.7656V57.5977H94.4709V58.7656Z" fill="#F7CC7F"/>
    <path d="M52.9393 131.035L53.5438 98.9191H101.839L102.504 131.035H52.9393Z" fill="#3C8F7C"/>
    <path d="M64.7263 131.035L65.0429 98.9191H90.3692L90.7172 131.035H64.7263Z" fill="#50BFA5"/>
    <path d="M81.7641 123.645L75.9886 128.474L81.9316 92.2397L91.6376 93.8358L85.6946 130.07L81.7641 123.645Z" fill="#B75742"/>
    <path d="M97.8622 123.64L93.9465 130.074L87.9202 93.8526L97.6224 92.2342L103.65 128.456L97.8622 123.64Z" fill="#B75742"/>
    <path d="M109.187 106.338C108.552 108.296 108.979 110.813 107.795 112.443C106.599 114.089 104.068 114.454 102.424 115.651C100.796 116.837 99.6734 119.141 97.7183 119.777C95.8317 120.391 93.5795 119.207 91.4883 119.207C89.3981 119.207 87.1449 120.39 85.2584 119.777C83.3033 119.141 82.1804 116.837 80.553 115.651C78.9099 114.454 76.3781 114.088 75.1821 112.443C73.9982 110.813 74.4249 108.296 73.7899 106.338C73.1771 104.449 71.334 102.673 71.334 100.58C71.334 98.4871 73.1771 96.7102 73.7899 94.8221C74.4249 92.8645 73.9982 90.347 75.1821 88.7176C76.3781 87.0723 78.909 86.7062 80.553 85.5086C82.1804 84.3231 83.3033 82.0188 85.2584 81.383C87.1449 80.7694 89.3972 81.953 91.4874 81.953C93.5776 81.953 95.8308 80.7703 97.7174 81.3839C99.6724 82.0198 100.795 84.324 102.423 85.5095C104.066 86.7071 106.598 87.0732 107.794 88.7185C108.978 90.348 108.551 92.8654 109.186 94.8231C109.8 96.7093 111.643 98.4862 111.643 100.579C111.643 102.672 109.8 104.449 109.187 106.338Z" fill="#F47458"/>
    <path d="M94.3601 118.155C93.439 117.952 92.4856 117.743 91.4895 117.743C90.4925 117.743 89.54 117.952 88.618 118.155C87.8376 118.327 87.1008 118.489 86.4667 118.489C86.1751 118.489 85.9288 118.454 85.7113 118.384C84.905 118.122 84.183 117.3 83.4174 116.43C82.8111 115.74 82.1844 115.029 81.4151 114.468C80.6348 113.9 79.7572 113.517 78.9083 113.147C77.8521 112.687 76.8551 112.253 76.3664 111.581C75.8859 110.92 75.7804 109.841 75.6684 108.698C75.5777 107.771 75.4832 106.813 75.1833 105.886C74.8945 104.995 74.4168 104.189 73.9549 103.408C73.3606 102.404 72.7987 101.455 72.7987 100.579C72.7987 99.7032 73.3606 98.755 73.9549 97.7512C74.4168 96.9707 74.8945 96.1643 75.1833 95.2736C75.4842 94.3457 75.5786 93.3873 75.6693 92.4604C75.7813 91.3185 75.8868 90.2386 76.3673 89.5787C76.856 88.9067 77.853 88.472 78.9093 88.0122C79.7581 87.6424 80.6366 87.2605 81.417 86.6914C82.1862 86.1306 82.8139 85.4178 83.4193 84.7291C84.1848 83.8588 84.9078 83.0366 85.7132 82.7752C85.9298 82.7048 86.1769 82.6705 86.4685 82.6705C87.1026 82.6705 87.8395 82.8327 88.6199 83.0042C89.5418 83.2071 90.4944 83.4166 91.4914 83.4166C92.4874 83.4166 93.4409 83.2071 94.3629 83.0042C95.1433 82.8327 95.8801 82.6705 96.5142 82.6705C96.8058 82.6705 97.053 82.7048 97.2696 82.7752C98.0759 83.0375 98.7988 83.8597 99.5635 84.73C100.17 85.4187 100.797 86.1315 101.566 86.6923C102.346 87.2605 103.224 87.6433 104.073 88.0131C105.129 88.4729 106.126 88.9076 106.615 89.5796C107.095 90.2405 107.201 91.3194 107.313 92.4623C107.403 93.3892 107.498 94.3476 107.798 95.2745C108.086 96.1652 108.564 96.9726 109.026 97.7521C109.62 98.7559 110.182 99.7051 110.182 100.58C110.182 101.456 109.62 102.404 109.026 103.409C108.564 104.189 108.086 104.996 107.798 105.887C107.497 106.814 107.402 107.773 107.312 108.699C107.2 109.841 107.094 110.921 106.614 111.581C106.125 112.254 105.128 112.688 104.072 113.148C103.223 113.518 102.344 113.9 101.564 114.469C100.795 115.03 100.168 115.742 99.5616 116.431C98.7961 117.301 98.0731 118.124 97.2677 118.385C97.0502 118.454 96.803 118.489 96.5114 118.489C95.8773 118.489 95.1405 118.327 94.3601 118.155Z" fill="#F7CC7F"/>
    <path fill-rule="evenodd" clip-rule="evenodd" d="M106.035 102.609C104.912 110.65 97.492 116.259 89.4618 115.138C81.4316 114.016 75.8322 106.589 76.9552 98.5479C78.0782 90.5072 85.4983 84.8981 93.5284 86.0196C101.559 87.1411 107.158 94.5685 106.035 102.609Z" fill="#F47458"/>
    <path fill-rule="evenodd" clip-rule="evenodd" d="M91.4894 114.547C83.7854 114.547 77.54 108.293 77.54 100.579C77.54 92.8651 83.7854 86.6117 91.4894 86.6117C99.1934 86.6117 105.439 92.8651 105.439 100.579C105.439 108.293 99.1934 114.547 91.4894 114.547Z" fill="white"/>
    <path fill-rule="evenodd" clip-rule="evenodd" d="M104.067 101.824C103.38 108.783 97.1881 113.869 90.2371 113.183C83.2861 112.496 78.2084 106.298 78.8958 99.3378C79.5831 92.3779 85.7751 87.2924 92.7261 87.9788C99.6771 88.6653 104.755 94.8638 104.067 101.824Z" fill="#F7CC7F"/>
    <path fill-rule="evenodd" clip-rule="evenodd" d="M83.6458 102.371H85.1306L84.6603 105.925H85.7471L86.2173 102.371H88.1002L87.63 105.925H88.7158L89.187 102.371H90.9069V101.301H89.3499L89.6757 98.6725H91.3235V97.6028H89.8368L90.2895 94.1399H89.2212L88.751 97.6028H86.8681L87.3208 94.1399H86.271L85.8008 97.6028H84.0808V98.6725H85.6378L85.2935 101.301H83.6458V102.371ZM86.7255 98.6734H88.6084L88.2641 101.302H86.3812L86.7255 98.6734Z" fill="white"/>
    <path d="M96.2131 95.6277L94.1673 96.7335L93.859 95.5183L96.4297 94.141H97.7877V105.926H96.2482V95.6277H96.2492H96.2131Z" fill="white"/>
    <path d="M105.792 12.8321C105.812 13.0787 105.885 14.1066 105.972 15.3662L104.123 14.6257C104.123 14.6257 104.146 12.5735 104.063 12.4474C103.993 12.3408 103.876 12.4734 103.31 11.6614C103.146 11.4269 103.115 11.008 103.115 11.008C103.115 11.008 103.082 10.4926 103.197 10.4444C103.312 10.3962 103.445 10.4731 103.486 10.5621C103.528 10.6511 103.518 10.8587 103.56 10.9477C103.601 11.0367 103.869 11.1442 103.982 11.1386C104.095 11.1331 103.968 9.61389 103.968 9.61389C103.968 9.61389 103.905 9.18288 103.873 9.04199C103.847 8.92149 103.737 8.56927 103.737 8.56927C103.737 8.56927 103.61 8.05762 103.768 8.01869C103.861 7.99552 104.099 8.41077 104.263 8.85198C104.439 9.32655 104.539 9.82986 104.589 9.82337C104.707 9.80761 104.644 8.97433 104.644 8.97433C104.644 8.97433 104.527 8.59244 104.53 8.41262C104.419 8.19202 104.345 7.78326 104.541 7.74896C104.577 7.74247 104.834 8.26247 104.834 8.26247C104.834 8.26247 104.935 8.62859 104.994 8.79914C105.098 9.10131 105.115 9.57774 105.168 9.78722C105.214 9.96241 105.254 9.89011 105.273 9.89752C105.288 9.90308 105.262 9.66209 105.233 9.33118C105.218 9.16434 105.238 8.97155 105.192 8.78153C105.148 8.60542 105.124 8.3533 105.113 8.20129C105.081 7.77028 105.352 7.81477 105.446 8.20871C105.481 8.35886 105.519 8.52293 105.556 8.68884C105.702 9.33489 105.698 9.95684 105.767 9.96241C105.857 9.96889 105.798 8.83622 105.798 8.83622C105.798 8.83622 105.937 8.20871 106.074 8.7908C106.234 9.46651 106.217 10.0171 106.214 10.0412C106.199 10.208 106.317 10.7975 106.179 11.3657C106.041 11.9339 105.792 12.8321 105.792 12.8321Z" fill="#F8A492"/>
    <path d="M103.956 13.5161C103.518 17.1857 103.321 18.5121 103.247 18.551C102.995 18.6808 99.6482 15.6165 99.0511 15.4088C98.766 15.3097 98.455 15.3263 98.1578 15.3347C97.4478 15.356 97.308 15.3579 97.308 15.3579C97.2877 15.3588 97.2821 15.3597 97.2821 15.3597L97.2858 16.028C98.0856 16.7482 99.9167 27.6616 100.07 27.6541C100.243 27.6458 103.861 28.5579 103.797 28.2529C103.787 28.2038 101.344 26.2017 100.651 23.3125C100.418 22.343 100.304 21.2984 100.177 20.3845C100.98 20.7877 104.121 22.3356 104.618 22.1307C106.168 21.4958 106.059 13.8479 106.059 13.8479C106.059 13.8479 103.976 13.3483 103.956 13.5161Z" fill="#3C8F7C"/>
    <path d="M115.769 36.3328C115.931 37.0066 119.014 36.1205 118.271 35.9833C118.099 35.9518 117.552 35.8128 117.507 35.7887C117.266 35.6598 114.271 32.0449 114.271 32.0449L112.291 33.2239C112.291 33.2239 115.657 35.8647 115.769 36.3328Z" fill="#F7A491"/>
    <path d="M117.568 35.8082C117.568 35.8082 116.953 36.3171 115.773 36.3412C115.773 36.3412 115.584 36.8816 115.674 37.5128C115.69 37.6212 115.707 37.9512 115.817 37.9438C116.214 37.9169 117.273 37.6527 118.478 37.4117C118.478 37.4117 120.098 37.0679 121.034 36.508C121.97 35.9472 119.717 35.9834 119.717 35.9834L117.568 35.8082Z" fill="#B75742"/>
    <path d="M102.398 26.376C105.553 25.6372 109.042 24.9532 110.064 25.5483C110.887 26.0275 116.024 33.8014 116.024 33.8014L114.04 35.2511L108.383 28.9074C108.383 28.9074 101.165 31.5741 99.544 31.2784C95.8524 30.6064 95.7996 27.6542 97.2057 26.6003C97.2057 26.6003 99.6709 27.0156 102.398 26.376Z" fill="#13375B"/>
    <path d="M102.368 27.9675L97.7918 29.3634L97.2058 26.6003L99.9014 25.032L102.368 27.9675Z" fill="#13375B"/>
    <path d="M104.671 43.2076C104.579 43.8954 106.4 45.9651 106.166 45.2449C106.113 45.079 105.975 44.5312 105.975 44.4802C105.974 44.2068 106.649 39.5556 106.649 39.5556L104.915 38.4396C104.915 38.4396 104.765 42.517 104.671 43.2076Z" fill="#F7A491"/>
    <path d="M105.986 44.5424C105.986 44.5424 105.247 44.243 104.664 43.2141C104.664 43.2141 104.101 43.304 103.588 43.6831C103.499 43.7489 102.897 44.1892 102.939 44.2912C103.094 44.6657 103.914 45.4674 104.81 46.3433C104.81 46.3433 106.081 47.3694 107.018 47.9274C107.956 48.4863 107.33 46.7308 107.33 46.7308L105.986 44.5424Z" fill="#B75742"/>
    <path d="M101.09 28.1575L99.1493 24.424L94.8596 27.073C94.8596 27.073 95.2882 30.4915 95.6104 31.4045C96.039 32.6215 98.9225 32.6836 100.683 32.665C102.303 32.6484 105.263 32.9793 105.263 32.9793L104.262 41.821C104.262 41.821 106.229 42.2696 106.783 42.1973C106.846 42.188 109.983 31.8336 108.91 30.4015C108.048 29.2503 101.09 28.1575 101.09 28.1575Z" fill="#355389"/>
    <path d="M94.8858 15.5016C94.8858 15.5016 94.8302 15.5183 94.8136 15.522C94.6164 15.5581 94.7951 22.6211 94.9719 25.2591C95.1478 27.897 95.5041 29.0056 95.5041 29.0056C95.5041 29.0056 98.7867 28.4217 99.7938 28.0305C100.212 27.8683 101.224 26.6012 101.224 26.6012C101.224 26.6012 100.19 25.21 99.6698 22.9492C99.2681 21.2057 98.7728 18.1154 98.4895 17.4703C97.8378 15.9882 97.3065 15.3662 97.3065 15.3662L94.8858 15.5016Z" fill="#9BC1F9"/>
    <path d="M94.8856 15.5024C94.8856 15.5024 96.4528 18.2053 97.2573 17.829C97.9321 17.5129 97.3332 15.4561 97.3332 15.4561C97.3332 15.4561 97.2166 14.9843 97.0546 14.443C96.9416 14.0648 96.8472 13.6542 96.8537 13.3539C96.8703 12.6226 94.9541 13.3622 94.9541 13.3622L94.8856 15.5024Z" fill="#F7A491"/>
    <path d="M94.9548 13.3622L94.9484 13.5717C95.0132 13.669 95.0844 13.7515 95.1622 13.8155C95.6769 14.2344 96.4221 14.4226 97.0275 14.3531C96.9257 13.9999 96.847 13.6301 96.8535 13.3539C96.8701 12.6226 94.9548 13.3622 94.9548 13.3622Z" fill="#F47458"/>
    <path d="M97.6842 10.7002C97.7435 11.7142 97.5296 12.4066 97.5296 12.4066L94.9673 9.33948L96.8261 8.48117C96.8261 8.48117 97.625 9.68614 97.6842 10.7002Z" fill="#184655"/>
    <path d="M97.6414 11.1747C97.435 11.1961 97.2387 10.9254 97.2026 10.5695C97.1665 10.2145 97.3045 9.90952 97.5109 9.8882C97.7173 9.86688 97.9136 10.1385 97.9497 10.4935C97.9858 10.8485 97.8479 11.1534 97.6414 11.1747Z" fill="#F48C7F"/>
    <path d="M94.94 13.466C95.7944 14.1612 97.282 14.2214 97.7162 13.5216C98.1966 12.7477 97.7393 9.63697 96.4683 8.97609C95.1974 8.31613 94.1384 9.83162 94.1384 9.83162C94.08 9.81957 94.0856 12.7717 94.94 13.466Z" fill="#F7A491"/>
    <path d="M92.5119 10.0106C91.9695 11.2628 93.0461 12.5596 93.9486 13.0758C94.8512 13.5912 94.9271 14.215 94.9271 14.215L94.9641 13.8313C94.9817 13.6904 94.9771 13.5764 94.9521 13.4781C94.9234 13.3623 94.8706 13.2659 94.8234 13.1667C94.7466 13.0026 94.4994 12.4381 94.4031 12.2898C94.1486 11.8977 94.0986 11.8125 94.2245 11.4399C94.3207 11.1525 94.2097 10.5204 94.3587 10.0467L95.5742 9.78441C95.5742 9.78441 96.3351 9.60088 96.7193 9.15782C97.8227 7.88147 95.6417 6.46053 93.9218 8.00105C93.2691 8.57387 92.9535 8.9919 92.5119 10.0106Z" fill="#184655"/>
    <path d="M94.4444 12.5048C94.2565 12.592 93.9825 12.4001 93.8325 12.0757C93.6825 11.7513 93.714 11.4185 93.9019 11.3314C94.0908 11.2452 94.3639 11.4371 94.5138 11.7605C94.6638 12.085 94.6323 12.4177 94.4444 12.5048Z" fill="#F7A491"/>
    <path d="M86.619 5.08319C86.5995 5.32975 86.5264 6.35769 86.4394 7.61735L88.288 6.87675C88.288 6.87675 88.2658 4.82459 88.3482 4.69853C88.4176 4.59194 88.5352 4.72448 89.1017 3.91252C89.2655 3.67801 89.2961 3.25905 89.2961 3.25905C89.2961 3.25905 89.3294 2.74369 89.2146 2.69549C89.0989 2.64729 88.9665 2.72423 88.9249 2.81321C88.8832 2.90219 88.8934 3.10982 88.8518 3.1988C88.8101 3.28778 88.5426 3.3953 88.4296 3.38974C88.3167 3.38418 88.4435 1.86499 88.4435 1.86499C88.4435 1.86499 88.5065 1.43398 88.5379 1.29309C88.5648 1.17259 88.674 0.820369 88.674 0.820369C88.674 0.820369 88.8027 0.308719 88.6435 0.269789C88.55 0.246616 88.3121 0.661869 88.1482 1.10307C87.9723 1.57765 87.8724 2.08096 87.8224 2.07447C87.7039 2.05871 87.7668 1.22543 87.7668 1.22543C87.7668 1.22543 87.8844 0.843542 87.8816 0.663723C87.9927 0.44312 88.0668 0.0334287 87.8705 6.02184e-05C87.8344 -0.0064281 87.5771 0.513564 87.5771 0.513564C87.5771 0.513564 87.4762 0.879691 87.4169 1.05024C87.3132 1.35241 87.2975 1.82884 87.2429 2.03832C87.1975 2.2135 87.1568 2.14121 87.1383 2.14862C87.1235 2.15418 87.1494 1.91319 87.1781 1.58228C87.1929 1.41544 87.1735 1.22264 87.2197 1.03263C87.2633 0.856518 87.2873 0.604401 87.2984 0.452389C87.3299 0.021379 87.0596 0.0658703 86.9652 0.459804C86.93 0.609962 86.892 0.774024 86.855 0.93994C86.7097 1.58599 86.7134 2.20794 86.644 2.2135C86.5542 2.21999 86.6134 1.08732 86.6134 1.08732C86.6134 1.08732 86.4746 0.459804 86.3376 1.0419C86.1774 1.71761 86.1941 2.26819 86.1968 2.29229C86.2126 2.45913 86.0941 3.04864 86.232 3.61683C86.37 4.18503 86.619 5.08319 86.619 5.08319Z" fill="#F8A492"/>
    <path d="M91.8667 15.1095C91.4918 14.9399 88.4083 12.4521 88.4083 12.4521L88.4426 5.79136L86.2736 5.62637C86.2736 5.62637 85.1489 12.9888 85.5386 13.7952C85.9404 14.6275 90.4541 18.0534 91.3567 19.5401C91.8769 20.3966 92.9609 32.0459 93.1257 32.1506C94.2939 32.7596 97.8996 33.3667 97.8153 32.9978C95.4677 22.7945 94.8855 15.5016 94.8855 15.5016C94.8855 15.5016 92.486 15.3894 91.8667 15.1095Z" fill="#3C8F7C"/>
    <path d="M52.2145 46.9124C52.1951 47.159 52.1219 48.1869 52.0349 49.4466L53.8836 48.706C53.8836 48.706 53.8613 46.6538 53.9437 46.5278C54.0132 46.4212 54.1307 46.5537 54.6973 45.7418C54.8611 45.5072 54.8917 45.0883 54.8917 45.0883C54.8917 45.0883 54.925 44.5729 54.8102 44.5247C54.6945 44.4765 54.5621 44.5535 54.5204 44.6424C54.4788 44.7314 54.489 44.9391 54.4473 45.028C54.4057 45.117 54.1381 45.2245 54.0252 45.219C53.9123 45.2134 54.0391 43.6942 54.0391 43.6942C54.0391 43.6942 54.102 43.2632 54.1335 43.1223C54.1603 43.0018 54.2696 42.6496 54.2696 42.6496C54.2696 42.6496 54.3983 42.138 54.239 42.099C54.1455 42.0759 53.9076 42.4911 53.7438 42.9323C53.5679 43.4069 53.4679 43.9102 53.4179 43.9037C53.2994 43.8879 53.3624 43.0547 53.3624 43.0547C53.3624 43.0547 53.48 42.6728 53.4772 42.493C53.5883 42.2724 53.6623 41.8627 53.4661 41.8293C53.43 41.8228 53.1726 42.3428 53.1726 42.3428C53.1726 42.3428 53.0717 42.7089 53.0125 42.8795C52.9079 43.1816 52.8921 43.6581 52.8384 43.8676C52.7931 44.0427 52.7524 43.9704 52.7338 43.9779C52.719 43.9834 52.7449 43.7424 52.7736 43.4115C52.7885 43.2447 52.769 43.0519 52.8153 42.8619C52.8588 42.6858 52.8829 42.4336 52.894 42.2816C52.9255 41.8506 52.6552 41.8951 52.5607 42.289C52.5246 42.4392 52.4876 42.6033 52.4496 42.7692C52.3043 43.4152 52.308 44.0372 52.2386 44.0427C52.1479 44.0492 52.208 42.9166 52.208 42.9166C52.208 42.9166 52.0692 42.29 51.9322 42.8711C51.772 43.5468 51.7896 44.0974 51.7915 44.1215C51.8081 44.2884 51.6887 44.8779 51.8276 45.4461C51.9655 46.0143 52.2145 46.9124 52.2145 46.9124Z" fill="#F8A492"/>
    <path d="M71.0626 45.4155C71.082 45.662 71.1552 46.6899 71.2422 47.9496L69.3936 47.209C69.3936 47.209 69.4158 45.1569 69.3334 45.0308C69.264 44.9242 69.1464 45.0567 68.5799 44.2448C68.416 44.0103 68.3855 43.5913 68.3855 43.5913C68.3855 43.5913 68.3522 43.076 68.4669 43.0278C68.5827 42.9796 68.715 43.0565 68.7567 43.1455C68.7983 43.2345 68.7882 43.4421 68.8298 43.5311C68.8715 43.62 69.139 43.7276 69.2519 43.722C69.3649 43.7164 69.238 42.1973 69.238 42.1973C69.238 42.1973 69.1751 41.7662 69.1436 41.6254C69.1168 41.5049 69.0075 41.1526 69.0075 41.1526C69.0075 41.1526 68.8789 40.641 69.0381 40.602C69.1316 40.5789 69.3695 40.9941 69.5333 41.4353C69.7092 41.9099 69.8092 42.4132 69.8592 42.4067C69.9777 42.391 69.9147 41.5577 69.9147 41.5577C69.9147 41.5577 69.7972 41.1758 69.7999 40.996C69.6889 40.7754 69.6148 40.3657 69.811 40.3323C69.8472 40.3258 70.1045 40.8458 70.1045 40.8458C70.1045 40.8458 70.2054 41.212 70.2646 41.3825C70.3692 41.6837 70.3841 42.1611 70.4387 42.3706C70.484 42.5458 70.5248 42.4735 70.5433 42.4809C70.5581 42.4864 70.5322 42.2454 70.5035 41.9145C70.4887 41.7477 70.5081 41.5549 70.4618 41.3649C70.4183 41.1888 70.3942 40.9367 70.3831 40.7846C70.3517 40.3536 70.622 40.3981 70.7164 40.7921C70.7525 40.9422 70.7895 41.1063 70.8275 41.2722C70.9728 41.9183 70.9691 42.5402 71.0385 42.5458C71.1292 42.5523 71.0691 41.4196 71.0691 41.4196C71.0691 41.4196 71.2079 40.793 71.3449 41.3742C71.5041 42.0499 71.4875 42.6005 71.4856 42.6246C71.469 42.7905 71.5884 43.38 71.4495 43.9491C71.3116 44.5173 71.0626 45.4155 71.0626 45.4155Z" fill="#F8A492"/>
    <path d="M61.611 50.8333C61.611 50.8333 62.1942 50.5051 62.6034 51.0891C62.6034 51.0891 63.6568 50.7711 63.9123 52.3487C63.9123 52.3487 64.4548 52.2468 64.5261 52.8919C64.5973 53.537 64.2706 53.9671 64.2706 53.9671C64.2706 53.9671 64.5751 54.1961 64.4372 54.7893C64.3196 55.2935 63.9031 55.3704 63.9031 55.3704C63.9031 55.3704 63.7901 56.2204 63.4226 56.4762C63.0542 56.7321 62.5534 56.6097 62.5534 56.6097C62.5534 56.6097 62.4201 57.0704 61.9906 57.0296C61.561 56.9888 61.0288 56.5791 60.5483 56.7636C60.0679 56.948 58.82 56.7534 58.82 56.7534C58.82 56.7534 57.4185 56.1287 57.8379 54.6947C57.8379 54.6947 57.101 54.0292 57.7462 53.2302C57.7462 53.2302 57.276 51.9808 58.2063 51.2439C59.1357 50.5061 59.9133 50.6182 59.9133 50.6182C59.9133 50.6182 60.8538 49.6246 61.611 50.8333Z" fill="#07345A"/>
    <path d="M67.6735 93.6635C67.929 93.8201 67.5597 95.6693 66.8635 95.7907C66.471 95.8593 66.2535 95.4274 66.2535 95.4274L66.3664 94.8944L64.902 93.3836L66.3933 92.2342C66.3933 92.2342 67.418 93.5068 67.6735 93.6635Z" fill="#F7A491"/>
    <path d="M62.1998 94.1298C62.4331 94.318 61.8305 96.1041 61.126 96.1356C60.7289 96.1532 60.5678 95.6972 60.5678 95.6972L60.7474 95.1837L59.4875 93.4977L61.1121 92.5485C61.1121 92.5485 61.9666 93.9416 62.1998 94.1298Z" fill="#F7A491"/>
    <path d="M61.3898 94.951C61.0445 95.2726 60.6011 95.5878 60.6011 95.5878C60.6011 95.5878 60.0994 96.4989 59.9624 96.8168C59.6578 97.525 59.3144 98.3129 59.3644 98.7096C59.3801 98.8366 59.6652 98.9719 59.9031 98.8987C60.8936 98.5937 63.4254 96.2746 63.7448 95.6527C64.1142 94.9334 62.148 94.0751 62.148 94.0751C62.148 94.0751 61.6573 94.7017 61.3898 94.951Z" fill="#07345A"/>
    <path d="M55.1879 72.1334C56.2413 72.3633 57.4309 72.6163 58.6547 72.8777L58.8037 77.3686C58.8028 77.0219 57.8835 84.5317 57.8835 84.5317C57.8835 84.5317 60.2617 89.803 61.8872 92.8757C61.2198 93.7099 60.9069 93.9787 59.9395 94.5469C57.4151 91.5168 54.1113 85.9721 53.9743 85.0498C53.8956 84.5187 53.8243 75.9458 54.9222 72.8536C55.0139 72.5959 55.1027 72.3577 55.1879 72.1334Z" fill="#B75742"/>
    <path d="M63.3442 84.8802C63.5238 85.5513 66.7063 91.7421 67.2794 92.643C66.8248 93.3289 66.1204 94.0705 65.3632 94.2753C65.2141 94.3161 59.9617 86.8323 59.6757 86.2381C59.3517 85.5671 58.8129 81.9039 58.8027 77.3695L58.6537 72.8787C60.6921 73.3134 62.5666 73.7398 64.3217 74.1523C63.9996 77.6513 63.285 84.3417 63.3442 84.8802Z" fill="#F47458"/>
    <path d="M60.025 58.5312C60.025 58.5312 61.9486 58.5785 62.1865 58.5785C62.4245 58.5785 63.9315 67.3442 64.3684 70.643C64.8044 73.9419 64.4665 74.5258 64.4665 74.5258C64.4665 74.5258 61.4238 75.2108 59.1725 75.0115C56.8314 74.8039 54.1978 73.5387 54.1978 73.5387C54.1978 73.5387 56.1991 67.1996 56.5953 65.2197C56.9934 63.2398 57.6256 58.2012 57.6256 58.2012L60.025 58.5312Z" fill="#96D9C9"/>
    <path d="M51.8987 54.6169C52.2569 55.3436 56.2865 60.5009 56.2865 60.5009C56.2865 60.5009 54.3611 68.5677 53.552 71.3531C53.4705 71.6339 53.1095 73.446 53.1095 73.6221C53.1095 74.0142 54.8128 74.511 55.0146 74.4814C55.1951 74.4545 56.6818 66.7816 57.6297 63.0276C57.9509 61.755 58.5026 60.5528 59.2571 59.4794L59.9171 58.5405L54.8544 53.4592C54.8544 53.4592 54.2305 47.8032 54.2305 47.3351C54.2315 47.2137 52.0524 47.121 51.807 47.5817C51.807 47.5817 51.6534 54.1173 51.8987 54.6169Z" fill="#13375B"/>
    <path d="M68.4141 52.1253C68.4141 52.1253 69.2935 46.0346 69.3565 45.8047C69.4176 45.5795 70.9857 45.4572 71.618 45.396C71.8207 45.3765 71.5115 51.8834 71.2097 52.9743C70.8524 54.2627 66.0804 60.1337 66.0804 60.1337C66.0804 60.1337 65.2251 63.3139 65.4315 65.646C65.774 69.5205 66.696 74.8492 66.5303 75.0161C65.5046 75.663 61.5667 75.7326 61.3177 75.3303C58.5647 70.8923 62.1008 58.5663 62.1008 58.5663L68.4141 52.1253Z" fill="#13375B"/>
    <path d="M59.9027 58.6275C59.9027 58.6275 59.5213 60.4507 60.012 60.802C60.5026 61.1533 62.0994 58.5756 62.0994 58.5756L61.9309 55.3694L60.073 57.3623L59.9027 58.6275Z" fill="#F7A491"/>
    <path d="M59.9282 58.4347L60.0726 57.3623L61.9305 55.3694L61.9851 56.4085C61.5797 57.5022 60.6142 58.1742 59.9282 58.4347Z" fill="#F47458"/>
    <path d="M63.9235 54.0746C63.5819 54.0746 63.3042 53.6788 63.3042 53.1903C63.3042 52.7018 63.5819 52.306 63.9235 52.306C64.2651 52.306 64.5428 52.7028 64.5428 53.1903C64.5428 53.6788 64.2651 54.0746 63.9235 54.0746Z" fill="#07345A"/>
    <path fill-rule="evenodd" clip-rule="evenodd" d="M61.9308 51.7982C61.5146 51.7982 61.1772 51.5708 61.1772 51.2902C61.1772 51.0097 61.5146 50.7823 61.9308 50.7823C62.3469 50.7823 62.6843 51.0097 62.6843 51.2902C62.6843 51.5708 62.3469 51.7982 61.9308 51.7982Z" fill="#07345A"/>
    <path d="M58.5853 53.3489C58.5196 53.7956 58.4594 54.3583 58.4483 54.9719C58.4215 56.4494 59.1852 57.8879 59.8554 57.8879C60.5256 57.8879 62.3779 56.9314 62.4446 54.8328C62.4872 53.538 61.8419 52.3617 60.7959 52.0012C59.7998 51.6582 58.7381 52.32 58.5853 53.3489Z" fill="#F7A491"/>
    <path d="M62.4346 55.5901C62.7012 55.5901 62.9169 55.3259 62.9169 54.9996C62.9169 54.6734 62.7012 54.4092 62.4346 54.4092C62.168 54.4092 61.9523 54.6734 61.9523 54.9996C61.9523 55.3259 62.168 55.5901 62.4346 55.5901Z" fill="#F7A491"/>
    <path d="M57.3512 53.13C57.7446 53.6101 58.624 53.5545 59.3164 53.0049C60.0089 52.4562 60.2514 51.621 59.858 51.1409C59.4646 50.6608 58.5851 50.7164 57.8927 51.266C57.2003 51.8147 56.9578 52.6499 57.3512 53.13Z" fill="#07345A"/>
    <path fill-rule="evenodd" clip-rule="evenodd" d="M60.3448 52.1485C59.99 52.1485 59.7024 51.9551 59.7024 51.7166C59.7024 51.478 59.99 51.2846 60.3448 51.2846C60.6996 51.2846 60.9873 51.478 60.9873 51.7166C60.9873 51.9551 60.6996 52.1485 60.3448 52.1485Z" fill="#07345A"/>
    <path d="M58.3393 54.1079C58.6421 54.1079 58.8883 53.8595 58.8883 53.5527C58.8883 53.2459 58.643 52.9975 58.3393 52.9975C58.0357 52.9975 57.7904 53.2459 57.7904 53.5527C57.7904 53.8595 58.0357 54.1079 58.3393 54.1079Z" fill="#07345A"/>
    <path d="M66.975 94.5812C66.6732 94.9446 66.2742 95.3135 66.2742 95.3135C66.2742 95.3135 65.8928 96.2812 65.7975 96.614C65.5855 97.3555 65.3457 98.249 65.4448 98.6365C65.4772 98.7607 65.7493 98.9979 65.9743 98.8506C66.8426 98.2842 69.1624 95.6333 69.3994 94.9742C69.6752 94.216 67.6156 93.6154 67.6156 93.6154C67.6156 93.6154 67.2092 94.2995 66.975 94.5812Z" fill="#07345A"/>
    <path d="M107.993 69.0821C105.948 71.1241 104.726 74.4034 104.726 74.4034L108.914 75.626C108.914 75.627 107.24 71.7173 112.806 66.6128C112.806 66.6128 110.038 67.0401 107.993 69.0821Z" fill="#FAE0B2"/>
    <path d="M113.273 66.2624L111.159 65.1715C110.919 65.0473 110.925 64.7006 111.17 64.5847L113.32 63.5689L113.703 61.2192C113.747 60.9513 114.078 60.8503 114.263 61.0477L115.892 62.7819L118.243 62.4214C118.51 62.3806 118.709 62.6642 118.579 62.9024L117.436 64.9898L118.505 67.1161C118.626 67.358 118.418 67.6352 118.152 67.5842L115.816 67.1402L114.126 68.8151C113.935 69.007 113.607 68.8939 113.573 68.6242L113.273 66.2624Z" fill="#F7CC7F"/>
    <path d="M44.7712 81.6555C46.816 83.6975 48.037 86.9769 48.037 86.9769L43.8492 88.1995C43.8501 88.2004 45.5228 84.2898 39.9575 79.1863C39.9575 79.1863 42.7263 79.6136 44.7712 81.6555Z" fill="#FAE0B2"/>
    <path d="M39.4899 78.8359L41.6033 77.7449C41.844 77.6207 41.8375 77.274 41.5931 77.1582L39.4427 76.1423L39.0595 73.7926C39.0159 73.5247 38.6845 73.4237 38.4994 73.6211L36.8702 75.3554L34.5198 74.9948C34.2523 74.954 34.0533 75.2376 34.1838 75.4759L35.327 77.5632L34.2578 79.6896C34.1356 79.9315 34.3449 80.2086 34.6105 80.1576L36.9461 79.7137L38.6355 81.3886C38.828 81.5795 39.1557 81.4664 39.19 81.1976L39.4899 78.8359Z" fill="#F7CC7F"/>
    <path d="M132.184 67.5805L131.65 66.4256C131.589 66.2939 131.705 66.1493 131.847 66.1818L133.088 66.4599L134.02 65.5941C134.126 65.4959 134.299 65.5617 134.312 65.7063L134.432 66.9734L135.542 67.5935C135.668 67.6639 135.659 67.8493 135.526 67.9068L134.359 68.4119L134.113 69.6605C134.085 69.8023 133.907 69.8514 133.81 69.742L132.97 68.7873L131.708 68.9393C131.564 68.956 131.462 68.8012 131.536 68.6761L132.184 67.5805Z" fill="#466EB6"/>
    <path d="M69.8635 17.7457L69.1895 16.2886C69.1127 16.1227 69.2599 15.9401 69.4376 15.9808L71.003 16.3321L72.1786 15.2402C72.3129 15.116 72.5304 15.1995 72.548 15.3811L72.698 16.98L74.0985 17.7624C74.2578 17.8513 74.2467 18.0849 74.0782 18.1581L72.6063 18.7949L72.2962 20.3707C72.261 20.5505 72.0352 20.6107 71.9148 20.4735L70.8549 19.2686L69.2627 19.4595C69.0803 19.4818 68.9535 19.2853 69.0461 19.1277L69.8635 17.7457Z" fill="#F79C8D"/>
    <path d="M126.859 24.0022L128.066 26.0997L126.003 27.6134L126.909 29.7601L125.55 31.1458L126.251 31.8345L128.068 29.9816L127.209 27.9471L129.355 26.3713L128.168 24.309L130.123 23.002L129.016 22.5599L126.859 24.0022Z" fill="#F48C7F"/>
    <path d="M130.805 55.2082L128.761 56.5003L127.166 54.4982L125.061 55.4918L123.622 54.1886L122.963 54.918L124.887 56.6606L126.883 55.7189L128.541 57.8016L130.551 56.5309L131.934 58.4338L132.33 57.3076L130.805 55.2082Z" fill="#F48C7F"/>
    <path d="M61.3187 11.2684L58.9878 10.6297L59.3868 8.10022L57.2345 7.21502L57.2244 5.27316L56.2422 5.2778L56.2561 7.87498L58.2963 8.71383L57.8807 11.3453L60.1736 11.9737L59.7043 14.2799L60.8013 13.8127L61.3187 11.2684Z" fill="#F48C7F"/>
    <path d="M41.6203 19.0442L43.7494 18.9246L44.7102 21.0732L46.9393 20.2454L48.1326 22.6267L50.2793 22.1178L51.8011 24.2209L51.0059 24.7975L49.8682 23.2254L47.6031 23.7621L46.4561 21.4727L44.1891 22.3143L43.1292 19.9442L41.05 20.061L40.1345 18.349L38.7848 18.7123L38.5303 17.7623L40.6325 17.1978L41.6203 19.0442Z" fill="#F7CC7F"/>
    <path d="M29.8736 31.9356L29.3376 29.4311L27.0104 29.3811L26.3041 27.5727L25.3895 27.9314L26.3356 30.3497L28.5406 30.3969L29.0979 33.0025L31.464 32.7615L31.4455 31.7753L29.8736 31.9356Z" fill="#50BFA5"/>
    <path d="M28.0297 60.3924L25.5664 59.7055L24.4417 61.7466L22.5134 61.5343L22.407 62.5113L24.9851 62.7949L26.0505 60.8614L28.6138 61.576L29.4988 59.3663L28.6184 58.9242L28.0297 60.3924Z" fill="#50BFA5"/>
    <path d="M32.9231 48.6967C31.2504 50.443 28.4797 50.5014 26.7357 48.8256C24.9917 47.1507 24.9334 44.3764 26.6071 42.6301C28.2807 40.8848 31.0504 40.8264 32.7944 42.5013C34.5385 44.1762 34.5968 46.9504 32.9231 48.6967Z" fill="#FFF3D9"/>
    <path d="M30.8379 46.7372L30.2537 48.5984C30.2065 48.7486 30.0075 48.7801 29.9168 48.6503L28.7967 47.0542L26.849 47.0727C26.6917 47.0746 26.6009 46.8948 26.6954 46.7687L27.8654 45.2087L27.2461 43.3596C27.1962 43.2103 27.3387 43.0685 27.4878 43.1195L29.3308 43.7517L30.8962 42.5902C31.023 42.4966 31.2017 42.5884 31.1989 42.746L31.1674 44.6962L32.7541 45.827C32.8827 45.9197 32.8503 46.119 32.6994 46.1644L30.8379 46.7372Z" fill="#FED333"/>
    <path d="M147.243 55.9896C145.57 57.7359 142.799 57.7943 141.055 56.1184C139.311 54.4435 139.253 51.6693 140.927 49.923C142.6 48.1767 145.37 48.1193 147.114 49.7942C148.858 51.4691 148.916 54.2433 147.243 55.9896Z" fill="#FFF3D9"/>
    <path d="M145.156 54.0301L144.571 55.8913C144.524 56.0415 144.325 56.073 144.235 55.9433L143.115 54.3471L141.168 54.3657C141.01 54.3675 140.92 54.1877 141.014 54.0616L142.184 52.5017L141.565 50.6525C141.515 50.5033 141.657 50.3614 141.806 50.4124L143.649 51.0446L145.214 49.8832C145.341 49.7896 145.519 49.8813 145.517 50.0389L145.485 51.9891L147.072 53.1208C147.2 53.2126 147.169 53.411 147.018 53.4573L145.156 54.0301Z" fill="#FED333"/>
    <path d="M128.129 45.5702C128.211 45.7083 128.417 45.6907 128.475 45.5415L129.019 44.1595L130.464 43.8239C130.62 43.7878 130.667 43.5876 130.543 43.4847L129.398 42.5402L129.526 41.0608C129.54 40.9005 129.364 40.7939 129.229 40.8801L127.978 41.6781L126.612 41.0988C126.464 41.0358 126.308 41.1702 126.349 41.3259L126.721 42.7635L125.749 43.8851C125.644 44.0065 125.723 44.1965 125.883 44.2058L127.364 44.2976L128.129 45.5702Z" fill="#F47458"/>
    <path d="M123.793 74.332C123.304 74.332 122.906 73.9344 122.906 73.4441C122.906 72.9538 123.304 72.5561 123.793 72.5561C124.283 72.5561 124.68 72.9538 124.68 73.4441C124.68 73.9344 124.283 74.332 123.793 74.332Z" fill="#50BFA5"/>
    <path d="M19.9642 47.4231C19.4337 47.4231 19.0033 47.0255 19.0033 46.5351C19.0033 46.0448 19.4328 45.6472 19.9642 45.6472C20.4946 45.6481 20.9241 46.0457 20.9241 46.5351C20.9241 47.0255 20.4946 47.4231 19.9642 47.4231Z" fill="#50BFA5"/>
    <path d="M72.3077 4.30267C72.3077 4.30267 74.0092 3.50738 74.1387 3.12365C74.2683 2.73991 74.2091 1.85657 74.4581 1.80096C74.7071 1.74534 75.2052 1.76666 75.3959 2.35339C75.5338 2.77884 75.0533 4.11821 75.1691 4.24056C75.2422 4.31657 75.9068 4.46858 76.3947 4.57054C76.715 4.63821 76.9714 4.88105 77.0584 5.20269V5.20362C77.1177 5.42051 77.0195 5.65131 76.8224 5.75698L76.5159 5.92104L76.6594 6.24082C76.7668 6.47903 76.6641 6.76174 76.4299 6.87389L76.191 6.98883L76.2956 7.18163C76.4308 7.43004 76.3225 7.74333 76.0651 7.85456L75.8559 7.94447L75.8717 8.00194C75.9392 8.23922 75.8161 8.49134 75.5893 8.58218L75.3801 8.6656L72.2809 8.05199C71.9902 7.99452 71.7153 7.8768 71.4718 7.70718L70.4184 7.30768C70.3054 7.26505 70.2406 7.14362 70.2665 7.02313L70.8553 4.26559C70.8849 4.13304 71.0136 4.04684 71.1441 4.07279L72.3077 4.30267Z" fill="#96D9C9"/>
</svg>
