<svg width="21" height="16" viewBox="0 0 21 16" fill="none" xmlns="http://www.w3.org/2000/svg">
<path d="M0 15.4019V5.53462C0 2.4831 2.4831 0 5.53462 0H14.63C17.6822 0 20.166 2.4831 20.166 5.53462V7.23656C20.166 10.2881 17.6829 12.7712 14.6314 12.7712H5.66293L0 15.4019ZM5.53462 1.23391C3.16321 1.23391 1.23391 3.16321 1.23391 5.53462V13.4679L5.39102 11.5366H14.6314C17.0028 11.5366 18.9321 9.60731 18.9321 7.2359V5.53396C18.9321 3.16255 17.0021 1.23324 14.63 1.23324H5.53462V1.23391ZM5.94149 5.44089C6.58969 5.44089 7.1149 5.96609 7.1149 6.61429C7.1149 7.26249 6.58969 7.7877 5.94149 7.7877C5.29329 7.7877 4.76809 7.26249 4.76809 6.61429C4.76809 5.96609 5.29329 5.44089 5.94149 5.44089ZM14.2238 5.44089C14.872 5.44089 15.3972 5.96609 15.3972 6.61429C15.3972 7.26249 14.872 7.7877 14.2238 7.7877C13.5756 7.7877 13.0504 7.26249 13.0504 6.61429C13.0504 5.96609 13.5756 5.44089 14.2238 5.44089ZM10.082 5.44089C10.7302 5.44089 11.2554 5.96609 11.2554 6.61429C11.2554 7.26249 10.7302 7.7877 10.082 7.7877C9.43379 7.7877 8.90858 7.26249 8.90858 6.61429C8.90858 5.96609 9.43379 5.44089 10.082 5.44089Z" fill="#010002"/>
</svg>
