<svg width="22" height="22" viewBox="0 0 22 22" fill="none" xmlns="http://www.w3.org/2000/svg">
<path d="M16.466 9.1518L11.6297 5.52458V4.38436L18.4302 2.25918L10.3375 0V5.52458L5.50124 9.1518L0 11.2147V22H21.9672V11.2147L16.466 9.1518ZM11.6297 3.03049V1.70229L13.8745 2.329L11.6297 3.03049ZM20.675 16.8312H16.7985V10.6565L20.675 12.1102V16.8312ZM14.2141 9.0781H7.75314L10.9836 6.65525L14.2141 9.0781ZM5.16876 10.6565V16.8312H1.29219V12.1102L5.16876 10.6565ZM1.29219 18.1234H2.58438V20.7078H1.29219V18.1234ZM3.87657 20.7078V18.1234H5.16876V20.7078H3.87657ZM9.04533 20.7078V14.2469H10.3375V20.7078H9.04533ZM11.6297 20.7078V14.2469H12.9219V20.7078H11.6297ZM14.2141 20.7078V12.9547H7.75314V20.7078H6.46095V10.3703H15.5063V20.7078H14.2141ZM16.7985 18.1234H18.0907V20.7078H16.7985V18.1234ZM19.3828 20.7078V18.1234H20.675V20.7078H19.3828Z" fill="#A8A6A6"/>
</svg>
