<svg width="22" height="22" viewBox="0 0 22 22" fill="none" xmlns="http://www.w3.org/2000/svg">
<g clip-path="url(#clip0)">
<path d="M21.6777 15.8297C21.8557 15.8297 22 15.6855 22 15.5075V14.8842C22 14.2542 21.5189 13.7416 20.9276 13.7416H20.4061V13.0813C20.4061 12.6192 20.0301 12.2433 19.5681 12.2433H16.9741C16.5121 12.2433 16.1362 12.6193 16.1362 13.0813V14.8009C13.8189 14.5306 10.9345 14.5302 8.61333 14.8009V13.0813C8.61333 12.6192 8.2374 12.2433 7.7754 12.2433H7.57044C9.3371 11.1675 11.3128 9.70868 12.8533 8.28793L13.8649 9.67856C14.137 10.0528 14.6625 10.1346 15.0354 9.86333L17.1332 8.33751C17.1332 8.33751 17.1332 8.33751 17.1332 8.33747C17.5068 8.06573 17.5897 7.54061 17.3179 7.16692L16.9295 6.6329L17.3513 6.32615C17.8295 5.97827 17.917 5.28081 17.5464 4.77128L15.7971 2.36637C15.4265 1.85693 14.736 1.72532 14.2578 2.07315L13.836 2.37999L13.4476 1.84602C13.1759 1.47228 12.6508 1.38948 12.2771 1.66121L10.1793 3.18703C9.80567 3.45876 9.72278 3.98388 9.99456 4.35758L11.0061 5.74822C8.97255 6.89303 6.64017 8.58905 4.92237 10.1733L4.17828 9.15048C3.75925 8.5744 2.94852 8.44635 2.37252 8.86547L1.01016 9.85637C0.433775 10.2757 0.305944 11.0857 0.725189 11.6622L0.846103 11.8284L0.424365 12.1352C-0.063372 12.4899 -0.133798 13.1909 0.229245 13.69L1.9785 16.0949C2.16988 16.358 2.45038 16.5254 2.74953 16.5699V17.858C2.74953 18.488 3.23061 19.0007 3.8219 19.0007H4.34345V19.661C4.34345 20.123 4.71938 20.4989 5.18138 20.4989H7.7754C8.23744 20.4989 8.61333 20.123 8.61333 19.661V17.9415C9.52921 18.048 10.5588 18.115 11.6163 18.1363C11.6185 18.1364 11.6207 18.1364 11.6229 18.1364C11.7979 18.1364 11.9415 17.9963 11.945 17.8206C11.9486 17.6426 11.8072 17.4955 11.6293 17.4919C10.563 17.4704 9.52715 17.4018 8.61333 17.2925V15.4496C10.8931 15.1764 13.8091 15.1707 16.1362 15.4496V17.2925C15.2225 17.4018 14.1866 17.4704 13.1203 17.4919C12.9423 17.4955 12.8009 17.6426 12.8045 17.8205C12.8081 17.9963 12.9516 18.1364 13.1266 18.1364C13.1288 18.1364 13.1311 18.1364 13.1332 18.1363C14.1908 18.115 15.2204 18.048 16.1362 17.9415V19.661C16.1362 20.123 16.5121 20.4989 16.9741 20.4989H19.5681C20.0302 20.4989 20.4061 20.123 20.4061 19.661V19.0007H20.9276C21.5189 19.0007 22 18.488 22 17.858V17.0115C22 16.8335 21.8557 16.6892 21.6777 16.6892C21.4998 16.6892 21.3555 16.8335 21.3555 17.0115V17.858C21.3555 18.128 21.1596 18.3561 20.9277 18.3561H20.4061V14.3862H20.9277C21.1595 14.3862 21.3555 14.6143 21.3555 14.8843V15.5075C21.3554 15.6855 21.4998 15.8297 21.6777 15.8297ZM14.6369 2.59441C14.8244 2.45811 15.1171 2.52725 15.2758 2.74557L17.0251 5.15048C17.1839 5.36876 17.1596 5.66851 16.9721 5.80489L16.5503 6.11165C16.2892 5.75252 14.4806 3.26605 14.2152 2.90116L14.6369 2.59441ZM10.5158 3.97851C10.4542 3.89373 10.4737 3.77003 10.5584 3.70837L12.6562 2.18251C12.7413 2.12068 12.8649 2.14066 12.9263 2.22518C13.0568 2.40453 16.0629 6.53743 16.2186 6.75149C16.2187 6.75158 16.2187 6.75167 16.2188 6.75175L16.7966 7.54607C16.8583 7.63085 16.8388 7.75456 16.754 7.81622L14.6562 9.34208C14.571 9.40395 14.4486 9.3853 14.3861 9.29941C14.259 9.12465 10.6693 4.18945 10.5158 3.97851ZM11.3877 6.27295L12.4717 7.76328C10.7951 9.31943 8.44322 11.0397 6.3879 12.1881L5.30402 10.698C6.97618 9.14597 9.32945 7.42297 11.3877 6.27295ZM2.74953 14.8842V15.9072C2.65367 15.8715 2.56506 15.8054 2.49984 15.7157L0.750583 13.3108C0.584509 13.0826 0.621634 12.7888 0.803564 12.6564L1.2253 12.3497C1.27643 12.42 1.67677 12.9703 2.80517 14.5217C2.76676 14.6438 2.74953 14.7698 2.74953 14.8842ZM4.34345 18.356H3.8219C3.59004 18.356 3.3941 18.128 3.3941 17.8579C3.3941 17.5668 3.3941 15.1877 3.3941 14.8842C3.3941 14.7716 3.43127 14.65 3.50487 14.5546C3.59253 14.4407 3.71108 14.3861 3.8219 14.3861H4.34341V18.356H4.34345ZM4.34345 13.0812V13.7416H3.8219C3.79573 13.7416 3.76982 13.7429 3.74408 13.7449C3.73953 13.7452 3.73497 13.7456 3.73042 13.746C3.53087 13.7641 3.34679 13.8405 3.19327 13.9593L1.24648 11.2829C1.03628 10.994 1.10035 10.5878 1.38931 10.3776L2.75168 9.38672C3.03935 9.17733 3.4476 9.24166 3.65698 9.52959C3.89164 9.85216 5.37973 11.898 5.63083 12.2432H5.18134C4.71938 12.2432 4.34345 12.6192 4.34345 13.0812ZM7.9688 19.6609C7.9688 19.7657 7.88024 19.8543 7.77544 19.8543H5.18143C5.07663 19.8543 4.98807 19.7657 4.98807 19.6609C4.98807 19.3576 4.98807 13.279 4.98807 13.0813C4.98807 12.9765 5.07663 12.8879 5.18143 12.8879C5.83726 12.8879 6.19935 12.8879 6.38786 12.8879C6.52372 12.8879 6.56944 12.8879 6.56983 12.8879C6.75825 12.8879 7.12013 12.8879 7.77544 12.8879C7.88024 12.8879 7.9688 12.9765 7.9688 13.0813C7.9688 13.48 7.9688 19.4157 7.9688 19.6609ZM19.7616 19.6609C19.7616 19.7657 19.673 19.8543 19.5682 19.8543H16.9742C16.8694 19.8543 16.7808 19.7657 16.7808 19.6609V13.0813C16.7808 12.9765 16.8694 12.8879 16.9742 12.8879H19.5682C19.673 12.8879 19.7616 12.9765 19.7616 13.0813C19.7616 13.4782 19.7616 19.448 19.7616 19.6609Z" fill="#A8A6A6"/>
</g>
<defs>
<clipPath id="clip0">
<rect width="22" height="22" fill="white"/>
</clipPath>
</defs>
</svg>
