<svg width="22" height="22" viewBox="0 0 22 22" fill="none" xmlns="http://www.w3.org/2000/svg">
<g clip-path="url(#clip0)">
<path d="M19.5298 21.0332L11.6446 7.37544V5.43124H16.8681C17.1288 5.43124 17.3638 5.27419 17.4636 5.03335C17.5633 4.79251 17.5082 4.51528 17.3238 4.33094L15.7085 2.71562L17.3239 1.10026C17.5082 0.91592 17.5633 0.638686 17.4636 0.397847C17.3638 0.15705 17.1288 0 16.8681 0H11C10.6441 0 10.3555 0.288578 10.3555 0.64453V7.37544L2.47025 21.0332C2.22048 21.4538 2.53943 22.006 3.02842 22H18.9716C19.4608 22.006 19.7795 21.4536 19.5298 21.0332ZM11.6446 1.28906H15.3121L14.3412 2.25989C14.0916 2.49992 14.0916 2.93141 14.3412 3.17139L15.312 4.14218H11.6445V1.28906H11.6446ZM11 8.83719L12.965 12.2407C11.8449 13.0929 10.1552 13.0929 9.035 12.2407L11 8.83719ZM4.14478 20.7109L8.38747 13.3623C9.89674 14.4369 12.1034 14.4368 13.6126 13.3623L17.8553 20.7109H4.14478Z" fill="#A8A6A6"/>
</g>
<defs>
<clipPath id="clip0">
<rect width="22" height="22" fill="white"/>
</clipPath>
</defs>
</svg>
