<svg width="19" height="19" viewBox="0 0 19 19" fill="none" xmlns="http://www.w3.org/2000/svg">
<path d="M14.547 19H4.45351C1.99812 19 0.000497138 17.0023 0.000497138 14.5469V10.0938C-0.0289298 8.37432 1.25146 6.77517 2.93206 6.45707V4.45312C2.93206 1.99767 4.92968 0 7.38507 0H14.547C17.0024 0 19 1.99767 19 4.45312V14.5469C19 17.0023 17.0024 19 14.547 19ZM2.93206 7.99366C2.0802 8.29647 1.48483 9.11135 1.48483 10.0937V14.5468C1.48483 16.1838 2.81658 17.5156 4.45351 17.5156H14.547C16.1839 17.5156 17.5157 16.1838 17.5157 14.5468V4.45309C17.5157 2.81612 16.1839 1.48434 14.547 1.48434H7.38507C5.74814 1.48434 4.4164 2.81612 4.4164 4.45309V14.6953C4.37721 15.68 2.97091 15.6793 2.93206 14.6953V7.99366ZM16.0313 4.78711C16.0313 4.3772 15.6991 4.04492 15.2892 4.04492H6.6429C5.65819 4.08411 5.65893 5.49044 6.6429 5.5293H15.2892C15.6991 5.5293 16.0313 5.19702 16.0313 4.78711ZM16.0684 11.7266C16.0684 11.3167 15.7362 10.9844 15.3263 10.9844H12.4318C11.4471 11.0236 11.4478 12.4299 12.4318 12.4688H15.3263C15.7362 12.4688 16.0684 12.1365 16.0684 11.7266ZM10.2424 11.7266C10.2424 11.3167 9.91015 10.9844 9.50025 10.9844H6.6429C5.65819 11.0236 5.65893 12.4299 6.6429 12.4688H9.50025C9.91015 12.4688 10.2424 12.1365 10.2424 11.7266ZM10.2424 14.6953C10.2424 14.2854 9.91015 13.9531 9.50025 13.9531H6.6429C5.65819 13.9923 5.65893 15.3986 6.6429 15.4375H9.50025C9.91015 15.4375 10.2424 15.1052 10.2424 14.6953ZM14.547 14.6953C14.547 14.2854 14.2147 13.9531 13.8048 13.9531H12.4318C11.4471 13.9923 11.4478 15.3986 12.4318 15.4375H13.8048C14.2147 15.4375 14.547 15.1052 14.547 14.6953ZM15.3263 9.5H9.94555C8.96084 9.46081 8.96158 8.05448 9.94555 8.01562H15.3263C16.311 8.05481 16.3102 9.46115 15.3263 9.5ZM5.90073 8.68359C5.90073 9.19596 6.31609 9.61133 6.82844 9.61133C8.05903 9.56246 8.0587 7.80455 6.82844 7.75586C6.31609 7.75586 5.90073 8.17119 5.90073 8.68359Z" fill="black"/>
</svg>
