<svg width="19" height="19" viewBox="0 0 19 19" fill="none" xmlns="http://www.w3.org/2000/svg">
<path d="M10.2422 5.12109V9.19259L12.9441 11.8945C13.2339 12.1843 13.2339 12.6543 12.9441 12.9441C12.6542 13.2339 12.1843 13.2339 11.8945 12.9441L8.9752 10.0248C8.836 9.88564 8.75781 9.69683 8.75781 9.5V5.12109C8.75781 4.71118 9.09009 4.37891 9.5 4.37891C9.90991 4.37891 10.2422 4.71118 10.2422 5.12109ZM12.4193 0H6.58072C5.02621 0 3.49259 0.546324 2.26549 1.61344V0.742188C2.26549 0.332277 1.93321 0 1.5233 0C1.11339 0 0.781115 0.332277 0.781115 0.742188V3.66147C0.781115 4.07138 1.11625 4.40366 1.5233 4.40366H4.44259C4.8525 4.40366 5.18477 4.07138 5.18477 3.66147C5.18477 3.25156 4.8525 2.91928 4.44259 2.91928H3.03863C3.97801 2.01363 5.24608 1.48438 6.58072 1.48438H12.4192C15.2294 1.48438 17.5156 3.77057 17.5156 6.58072V12.4192C17.5156 15.2294 15.2294 17.5156 12.4193 17.5156H6.58072C3.77057 17.5156 1.48438 15.2294 1.48438 12.4193V9.5C1.48438 9.09009 1.1521 8.75781 0.742188 8.75781C0.332277 8.75781 0 9.09009 0 9.5V12.4193C0 16.0479 2.95209 19 6.58072 19H12.4192C16.0479 19 19 16.0479 19 12.4193V6.58072C19 2.95209 16.0479 0 12.4193 0V0Z" fill="black"/>
</svg>
