<svg width="26" height="21" viewBox="0 0 26 21" fill="none" xmlns="http://www.w3.org/2000/svg">
<path d="M18.5568 4.2344C18.4716 3.97884 18.2511 3.79343 17.9855 3.75334L14.7934 3.2873L13.3653 0.395879C13.245 0.155345 12.9995 0 12.7289 0C12.4583 0 12.2127 0.155345 12.0924 0.395879L10.6643 3.2873L7.47219 3.75334C7.2066 3.79343 6.98611 3.97884 6.90092 4.2344C6.81573 4.48997 6.88588 4.7706 7.08132 4.96102L9.39145 7.21101L8.84524 10.3931C8.80014 10.6587 8.91038 10.9243 9.12586 11.0846C9.34635 11.245 9.63198 11.265 9.87252 11.1397L12.7289 9.6364L15.5852 11.1397C15.6954 11.1949 16.0512 11.2851 16.3319 11.0846C16.5524 10.9293 16.6576 10.6587 16.6125 10.3931L16.0663 7.21101L18.3764 4.96102C18.5668 4.77561 18.637 4.48997 18.5568 4.2344ZM14.8235 6.45935C14.6581 6.6197 14.583 6.85522 14.6181 7.08574L14.9839 9.22048L13.0646 8.21324C12.7339 8.103 12.7339 8.103 12.4081 8.21324L10.4939 9.22048L10.8597 7.08574C10.8998 6.85522 10.8246 6.62471 10.6543 6.45935L9.10581 4.94598L11.2506 4.63529C11.4811 4.60022 11.6815 4.45489 11.7818 4.24944L12.7389 2.31013L13.696 4.24944C13.8012 4.4599 13.9967 4.60523 14.2272 4.63529L16.372 4.94598L14.8235 6.45935Z" fill="black"/>
<path d="M25.4272 13.1792C25.342 12.9237 25.1215 12.7383 24.8559 12.6982L21.6638 12.2321L20.2356 9.3407C20.1154 9.10017 19.8698 8.94482 19.5992 8.94482C19.3286 8.94482 19.0831 9.10017 18.9628 9.3407L17.5346 12.2321L14.3425 12.6982C14.077 12.7383 13.8565 12.9237 13.7713 13.1792C13.6861 13.4348 13.7562 13.7154 13.9517 13.9058L16.2618 16.1558L15.7156 19.3379C15.6705 19.6035 15.7807 19.8691 15.9962 20.0294C16.2167 20.1898 16.5023 20.2098 16.7429 20.0846L19.5992 18.5812L22.4556 20.0846C22.5608 20.1397 22.9166 20.2299 23.2022 20.0294C23.4227 19.8741 23.5279 19.6035 23.4828 19.3379L22.9366 16.1558L25.2468 13.9058C25.4422 13.7154 25.5124 13.4348 25.4272 13.1792ZM21.6839 15.3992C21.5185 15.5595 21.4433 15.795 21.4784 16.0256L21.8442 18.1603L19.93 17.1531C19.5992 17.0428 19.5992 17.0428 19.2735 17.1531L17.3592 18.1603L17.7251 16.0256C17.7651 15.795 17.69 15.5645 17.5196 15.3992L15.9712 13.8908L18.1159 13.5801C18.3464 13.545 18.5469 13.3997 18.6471 13.1943L19.6042 11.255L20.5614 13.1943C20.6666 13.4047 20.862 13.5501 21.0925 13.5801L23.2373 13.8908L21.6839 15.3992Z" fill="black"/>
<path d="M11.6916 13.1792C11.6064 12.9237 11.3859 12.7332 11.1203 12.6982L7.92821 12.2321L6.50004 9.3407C6.37977 9.10017 6.13423 8.94482 5.86363 8.94482C5.59303 8.94482 5.34748 9.10017 5.22721 9.3407L3.79904 12.2321L0.606952 12.6982C0.341362 12.7383 0.120873 12.9237 0.0356834 13.1792C-0.0495058 13.4348 0.02065 13.7154 0.216084 13.9058L2.52621 16.1558L1.98 19.3379C1.9349 19.6035 2.04515 19.8691 2.26062 20.0294C2.48111 20.1898 2.76675 20.2098 3.00728 20.0846L5.86363 18.5812L8.71997 20.0846C8.8252 20.1397 9.18099 20.2299 9.46663 20.0294C9.68712 19.8741 9.79235 19.6035 9.74725 19.3379L9.20104 16.1558L11.5112 13.9058C11.7016 13.7204 11.7717 13.4348 11.6916 13.1792ZM7.94826 15.3992C7.78289 15.5595 7.70772 15.795 7.7428 16.0256L8.10861 18.1603L6.19436 17.1531C5.86363 17.0428 5.86363 17.0428 5.5379 17.1531L3.62365 18.1603L3.98946 16.0256C4.02955 15.795 3.95439 15.5645 3.78401 15.3992L2.23056 13.8908L4.37532 13.5801C4.60583 13.545 4.80628 13.3997 4.9065 13.1943L5.86363 11.255L6.82075 13.1943C6.92599 13.4047 7.12142 13.5501 7.35193 13.5801L9.49669 13.8908L7.94826 15.3992Z" fill="black"/>
</svg>
