<svg width="16" height="21" viewBox="0 0 16 21" fill="none" xmlns="http://www.w3.org/2000/svg">
    <path d="M7.68331 8.06795C7.42737 7.81201 7.01131 7.8107 6.75406 8.06663L4.59368 10.2283L3.74581 9.37913C3.48987 9.1232 3.07381 9.1232 2.81787 9.37913C2.56193 9.63507 2.56193 10.0511 2.81787 10.3071L4.13037 11.6196C4.25768 11.7482 4.42568 11.8125 4.59368 11.8125C4.76168 11.8125 4.92968 11.7482 5.05831 11.6209L7.68331 8.99588C7.93924 8.73995 7.93924 8.32388 7.68331 8.06795Z" fill="#A8A6A6"/>
    <path d="M7.68331 13.3179C7.42737 13.0619 7.01131 13.0606 6.75406 13.3165L4.59368 15.4782L3.74581 14.6304C3.48987 14.3744 3.07381 14.3744 2.81787 14.6304C2.56193 14.8863 2.56193 15.3024 2.81787 15.5583L4.13037 16.8708C4.25768 16.9981 4.42568 17.0624 4.59368 17.0624C4.76168 17.0624 4.92968 16.9981 5.05831 16.8708L7.68331 14.2458C7.93924 13.9899 7.93924 13.5738 7.68331 13.3179Z" fill="#A8A6A6"/>
    <path d="M12.4688 9.18753H9.84375C9.4815 9.18753 9.1875 9.48153 9.1875 9.84378C9.1875 10.206 9.4815 10.5 9.84375 10.5H12.4688C12.831 10.5 13.125 10.206 13.125 9.84378C13.125 9.48153 12.831 9.18753 12.4688 9.18753Z" fill="#A8A6A6"/>
    <path d="M12.4688 14.4374H9.84375C9.4815 14.4374 9.1875 14.7314 9.1875 15.0937C9.1875 15.4559 9.4815 15.7499 9.84375 15.7499H12.4688C12.831 15.7499 13.125 15.4559 13.125 15.0937C13.125 14.7314 12.831 14.4374 12.4688 14.4374Z" fill="#A8A6A6"/>
    <path d="M14.4375 2.625H11.8125V1.96875C11.8125 1.6065 11.5185 1.3125 11.1562 1.3125H9.73219C9.4605 0.548625 8.73075 0 7.875 0C7.01925 0 6.2895 0.548625 6.01781 1.3125H4.59375C4.2315 1.3125 3.9375 1.6065 3.9375 1.96875V2.625H1.3125C0.589312 2.625 0 3.21431 0 3.9375V19.6875C0 20.4107 0.589312 21 1.3125 21H14.4375C15.1607 21 15.75 20.4107 15.75 19.6875V3.9375C15.75 3.21431 15.1607 2.625 14.4375 2.625ZM5.25 2.625H6.5625C6.92475 2.625 7.21875 2.331 7.21875 1.96875C7.21875 1.6065 7.51275 1.3125 7.875 1.3125C8.23725 1.3125 8.53125 1.6065 8.53125 1.96875C8.53125 2.331 8.82525 2.625 9.1875 2.625H10.5V3.9375H5.25V2.625ZM14.4375 19.6875H1.3125V3.9375H3.9375V4.59375C3.9375 4.956 4.2315 5.25 4.59375 5.25H11.1562C11.5185 5.25 11.8125 4.956 11.8125 4.59375V3.9375H14.4375V19.6875Z" fill="#A8A6A6"/>
</svg>
