<svg width="22" height="22" viewBox="0 0 22 22" fill="none" xmlns="http://www.w3.org/2000/svg">
<path d="M11.0001 1.11551C10.4476 1.11551 9.99817 1.56496 9.99817 2.11741C9.99817 2.66986 10.4476 3.11931 11.0001 3.11931C11.5525 3.11931 12.002 2.66986 12.002 2.11741C12.002 1.56496 11.5525 1.11551 11.0001 1.11551ZM11.0001 2.47474C10.803 2.47474 10.6427 2.31442 10.6427 2.11737C10.6427 1.92031 10.803 1.76 11.0001 1.76C11.1971 1.76 11.3574 1.92031 11.3574 2.11737C11.3574 2.31442 11.1971 2.47474 11.0001 2.47474Z" fill="#A8A6A6"/>
<path d="M8.02905 3.52026C7.85108 3.52026 7.70679 3.66455 7.70679 3.84252V4.38023C7.70679 4.55821 7.85108 4.7025 8.02905 4.7025C8.20703 4.7025 8.35132 4.55821 8.35132 4.38023V3.84252C8.35132 3.66455 8.20703 3.52026 8.02905 3.52026Z" fill="#A8A6A6"/>
<path d="M13.9709 3.52026C13.793 3.52026 13.6487 3.66455 13.6487 3.84252V4.38023C13.6487 4.55821 13.793 4.7025 13.9709 4.7025C14.1489 4.7025 14.2932 4.55821 14.2932 4.38023V3.84252C14.2932 3.66455 14.1489 3.52026 13.9709 3.52026Z" fill="#A8A6A6"/>
<path d="M11.9454 4.10021C11.8114 3.98303 11.6078 3.99674 11.4906 4.13072C11.3716 4.26684 11.1928 4.34496 11 4.34496C10.8072 4.34496 10.6284 4.26689 10.5094 4.13072C10.3923 3.99674 10.1887 3.98303 10.0546 4.10021C9.92062 4.21739 9.90696 4.42093 10.0241 4.55495C10.2655 4.83115 10.6212 4.98953 11 4.98953C11.3788 4.98953 11.7345 4.83111 11.9759 4.55495C12.093 4.42093 12.0794 4.2173 11.9454 4.10021Z" fill="#A8A6A6"/>
<path d="M14.5523 12.954H7.44775C7.26978 12.954 7.12549 13.0983 7.12549 13.2763C7.12549 13.4543 7.26978 13.5986 7.44775 13.5986H14.5523C14.7303 13.5986 14.8746 13.4543 14.8746 13.2763C14.8746 13.0983 14.7303 12.954 14.5523 12.954Z" fill="#A8A6A6"/>
<path d="M14.5523 14.8993H7.44775C7.26978 14.8993 7.12549 15.0436 7.12549 15.2216C7.12549 15.3996 7.26978 15.5439 7.44775 15.5439H14.5523C14.7303 15.5439 14.8746 15.3996 14.8746 15.2216C14.8746 15.0436 14.7303 14.8993 14.5523 14.8993Z" fill="#A8A6A6"/>
<path d="M14.5523 16.8447H7.44775C7.26978 16.8447 7.12549 16.9889 7.12549 17.1669C7.12549 17.3449 7.26978 17.4892 7.44775 17.4892H14.5523C14.7303 17.4892 14.8746 17.3449 14.8746 17.1669C14.8746 16.9889 14.7303 16.8447 14.5523 16.8447Z" fill="#A8A6A6"/>
<path d="M12.8228 8.67006H12.0019V7.84918C12.0019 7.67116 11.8576 7.52692 11.6797 7.52692H10.3204C10.1424 7.52692 9.99812 7.67116 9.99812 7.84918V8.67006H9.17725C8.99927 8.67006 8.85498 8.81435 8.85498 8.99232V10.3516C8.85498 10.5296 8.99927 10.6739 9.17725 10.6739H9.99812V11.4948C9.99812 11.6728 10.1424 11.817 10.3204 11.817H11.6797C11.8576 11.817 12.0019 11.6728 12.0019 11.4948V10.6739H12.8228C13.0008 10.6739 13.1451 10.5296 13.1451 10.3516V8.99232C13.1451 8.81435 13.0008 8.67006 12.8228 8.67006ZM12.5005 10.0294H11.6797C11.5017 10.0294 11.3574 10.1736 11.3574 10.3516V11.1725H10.6427V10.3516C10.6427 10.1736 10.4984 10.0294 10.3204 10.0294H9.49951V9.31459H10.3204C10.4984 9.31459 10.6427 9.1703 10.6427 8.99232V8.17145H11.3574V8.99232C11.3574 9.1703 11.5017 9.31459 11.6797 9.31459H12.5005V10.0294Z" fill="#A8A6A6"/>
<path d="M17.5623 3.38263H16.1855V2.87616C16.1855 2.34162 15.7506 1.90674 15.2161 1.90674H13.2057C13.0491 0.829855 12.1196 0 11 0C9.88033 0 8.95087 0.829855 8.79421 1.90674H6.78387C6.24934 1.90674 5.81445 2.34162 5.81445 2.87616V3.38263H4.43765C3.40507 3.38263 2.56494 4.22271 2.56494 5.25529V20.1273C2.56494 21.1599 3.40502 22 4.43765 22H5.98495C6.16293 22 6.30722 21.8557 6.30722 21.6777C6.30722 21.4998 6.16293 21.3555 5.98495 21.3555H4.43765C3.76046 21.3555 3.20947 20.8045 3.20947 20.1273V5.25529C3.20947 4.57811 3.76042 4.02716 4.43765 4.02716H5.81445V4.86273H4.43765C4.22117 4.86273 4.04509 5.03882 4.04509 5.25529V20.1273C4.04509 20.3438 4.22117 20.5199 4.43765 20.5199H17.5623C17.7788 20.5199 17.9548 20.3438 17.9548 20.1273V5.25529C17.9548 5.03882 17.7787 4.86273 17.5623 4.86273H16.1855V4.02716H17.5623C18.2395 4.02716 18.7905 4.57811 18.7905 5.25529V20.1273C18.7905 20.8045 18.2395 21.3555 17.5623 21.3555H7.27402C7.09604 21.3555 6.95175 21.4998 6.95175 21.6777C6.95175 21.8557 7.09604 22 7.27402 22H17.5623C18.5949 22 19.435 21.1599 19.435 20.1273V5.25529C19.435 4.22271 18.5949 3.38263 17.5623 3.38263ZM17.3103 5.5073V19.8754H4.68962V5.50726H5.81445V5.57618C5.81445 6.11071 6.24934 6.5456 6.78387 6.5456H13.0318C13.2098 6.5456 13.3541 6.40131 13.3541 6.22334C13.3541 6.04536 13.2098 5.90107 13.0318 5.90107H6.78387C6.60473 5.90107 6.45898 5.75532 6.45898 5.57618V2.87616C6.45898 2.69702 6.60473 2.55127 6.78387 2.55127H9.09327C9.27125 2.55127 9.41554 2.40698 9.41554 2.229C9.41549 1.35532 10.1263 0.644531 11 0.644531C11.8736 0.644531 12.5844 1.35532 12.5844 2.229C12.5844 2.40698 12.7287 2.55127 12.9067 2.55127H15.2161C15.3952 2.55127 15.5409 2.69702 15.5409 2.87616V5.57623C15.5409 5.75536 15.3952 5.90111 15.2161 5.90111H14.3209C14.1429 5.90111 13.9986 6.0454 13.9986 6.22338C13.9986 6.40136 14.1429 6.54564 14.3209 6.54564H15.2161C15.7506 6.54564 16.1855 6.11076 16.1855 5.57623V5.5073H17.3103Z" fill="#A8A6A6"/>
</svg>
