<svg width="17" height="19" viewBox="0 0 17 19" fill="none" xmlns="http://www.w3.org/2000/svg">
    <path d="M16.0556 0C16.306 0 16.5463 0.100089 16.7234 0.278249C16.9005 0.456408 17 0.698044 17 0.95V18.05C17 18.302 16.9005 18.5436 16.7234 18.7218C16.5463 18.8999 16.306 19 16.0556 19H2.83333C2.58285 19 2.34263 18.8999 2.16551 18.7218C1.98839 18.5436 1.88889 18.302 1.88889 18.05V16.15H0V14.25H1.88889V12.35H0V10.45H1.88889V8.55H0V6.65H1.88889V4.75H0V2.85H1.88889V0.95C1.88889 0.698044 1.98839 0.456408 2.16551 0.278249C2.34263 0.100089 2.58285 0 2.83333 0H16.0556ZM15.1111 1.9H3.77778V17.1H15.1111V1.9ZM10.3889 5.7V8.55H13.2222V10.45H10.3879L10.3889 13.3H8.5L8.49905 10.45H5.66667V8.55H8.5V5.7H10.3889Z" fill="#A8A6A6"/>
</svg>
