<svg width="18" height="18" viewBox="0 0 18 18" fill="none" xmlns="http://www.w3.org/2000/svg">
<path d="M15.3214 2.62871C13.6263 0.933582 11.3724 0 8.97507 0C6.57774 0 4.32391 0.933547 2.62875 2.62871L2.62868 2.62875L2.62864 2.62878C0.933547 4.32398 0 6.57778 0 8.97507C0 8.9751 0 8.97514 0 8.97514V8.97517C3.50589e-05 10.9351 0.620682 12.7972 1.79491 14.3604C1.89423 14.4926 2.05 14.5704 2.21537 14.5704H15.7348C15.9002 14.5704 16.056 14.4926 16.1553 14.3604C17.3295 12.7971 17.9501 10.935 17.9501 8.97517V8.97514H17.9501C17.9501 8.97514 17.9501 8.9751 17.9501 8.97507C17.9501 6.57774 17.0166 4.32388 15.3214 2.62871ZM15.4669 13.5187H2.48325C1.64643 12.3269 1.16322 10.9515 1.06912 9.50098L1.65246 9.50095C1.94289 9.50095 2.17835 9.26546 2.17831 8.97503C2.17831 8.6846 1.94282 8.44918 1.65239 8.44918L1.06965 8.44922C1.18751 6.65964 1.90187 5.03056 3.01573 3.75947L3.42536 4.16906C3.52804 4.27175 3.6626 4.32307 3.79719 4.32307C3.93178 4.32307 4.06637 4.27171 4.16906 4.16902C4.37443 3.96365 4.3744 3.63069 4.16902 3.42532L3.75943 3.01576C5.03052 1.90191 6.6596 1.18751 8.44918 1.06965V1.65246C8.44918 1.94289 8.68464 2.17835 8.97507 2.17835C9.26549 2.17835 9.50095 1.94289 9.50095 1.65246V1.06965C11.2905 1.18751 12.9196 1.90191 14.1907 3.0158L13.7811 3.42532C13.5757 3.63066 13.5757 3.96365 13.781 4.16902C13.8837 4.27171 14.0184 4.32307 14.1529 4.32307C14.2875 4.32307 14.4221 4.27175 14.5247 4.16906L14.9344 3.75947C16.0483 5.03056 16.7626 6.65964 16.8805 8.44922L16.2977 8.44918C16.2977 8.44918 16.2977 8.44918 16.2977 8.44918C16.0073 8.44918 15.7718 8.6846 15.7718 8.97503C15.7718 9.26546 16.0072 9.50095 16.2976 9.50095L16.881 9.50098C16.7869 10.9514 16.3037 12.3268 15.4669 13.5187Z" fill="black"/>
<path d="M12.3548 16.8983H5.59546C5.30504 16.8983 5.06958 17.1338 5.06958 17.4242C5.06958 17.7147 5.30504 17.9501 5.59546 17.9501H12.3548C12.6452 17.9501 12.8807 17.7147 12.8807 17.4242C12.8807 17.1338 12.6452 16.8983 12.3548 16.8983Z" fill="black"/>
<path d="M12.2717 5.6785C12.0664 5.47309 11.7334 5.47309 11.528 5.6785L10.1248 7.08166C9.78947 6.87727 9.39579 6.75937 8.97512 6.75937C7.75335 6.75937 6.7594 7.75332 6.7594 8.97509C6.7594 10.1969 7.75339 11.1908 8.97512 11.1908C10.1969 11.1908 11.1908 10.1968 11.1908 8.97509C11.1908 8.55442 11.0729 8.16077 10.8685 7.82537L12.2717 6.42221C12.4771 6.21683 12.4771 5.88388 12.2717 5.6785ZM8.97516 10.139C8.33333 10.139 7.8112 9.61687 7.8112 8.97509C7.8112 8.3333 8.33337 7.81113 8.97516 7.81113C9.61695 7.81113 10.1391 8.33326 10.1391 8.97509C10.1391 9.61691 9.61695 10.139 8.97516 10.139Z" fill="black"/>
</svg>
