<svg width="17" height="19" viewBox="0 0 17 19" fill="none" xmlns="http://www.w3.org/2000/svg">
    <path d="M11.9 11.2812C10.8109 11.2812 10.2873 11.875 8.5 11.875C6.71272 11.875 6.19286 11.2812 5.1 11.2812C2.28437 11.2812 0 13.5152 0 16.2687V17.2188C0 18.2021 0.815848 19 1.82143 19H15.1786C16.1842 19 17 18.2021 17 17.2188V16.2687C17 13.5152 14.7156 11.2812 11.9 11.2812ZM15.1786 17.2188H1.82143V16.2687C1.82143 14.5023 3.29375 13.0625 5.1 13.0625C5.65402 13.0625 6.55335 13.6562 8.5 13.6562C10.4618 13.6562 11.3422 13.0625 11.9 13.0625C13.7063 13.0625 15.1786 14.5023 15.1786 16.2687V17.2188ZM8.5 10.6875C11.5167 10.6875 13.9643 8.29395 13.9643 5.34375C13.9643 2.39355 11.5167 0 8.5 0C5.48326 0 3.03571 2.39355 3.03571 5.34375C3.03571 8.29395 5.48326 10.6875 8.5 10.6875ZM8.5 1.78125C10.5074 1.78125 12.1429 3.38066 12.1429 5.34375C12.1429 7.30684 10.5074 8.90625 8.5 8.90625C6.49263 8.90625 4.85714 7.30684 4.85714 5.34375C4.85714 3.38066 6.49263 1.78125 8.5 1.78125Z" fill="#A8A6A6"/>
</svg>
