<svg width="19" height="19" viewBox="0 0 19 19" fill="none" xmlns="http://www.w3.org/2000/svg">
<path d="M17.8087 6.95888L14.4622 9.50189V7.54987C14.4622 7.13993 14.1299 6.80769 13.72 6.80769H0.742193C0.332247 6.80769 0 7.13993 0 7.54987V18.2577C0 18.6675 0.332247 18.9997 0.742193 18.9997H13.72C14.1299 18.9997 14.4622 18.6675 14.4622 18.2577V16.3055L17.8087 18.8485C18.2929 19.2164 19 18.8735 19 18.2577V7.54987C19 6.93742 18.2968 6.58793 17.8087 6.95888ZM12.9778 17.5155H1.48439V8.29206H12.9778V17.5155ZM17.5156 16.7614L14.4622 14.4412V11.3663L17.5156 9.04599V16.7614ZM3.26435 2.94048C4.81005 1.07182 7.08287 0 9.49993 0C11.917 0 14.1898 1.07182 15.7357 2.94048C15.9969 3.25635 15.9527 3.72427 15.6368 3.98549C15.3218 4.24598 14.8537 4.20336 14.5918 3.88663C13.329 2.35992 11.4731 1.48438 9.49993 1.48438C7.52688 1.48438 5.67096 2.35992 4.40822 3.88663C4.147 4.20249 3.67907 4.24685 3.36321 3.98549C3.04734 3.72427 3.00313 3.25635 3.26435 2.94048ZM12.1839 4.13596C12.5326 4.35122 12.6408 4.80856 12.4255 5.15733C12.2105 5.50538 11.7535 5.61468 11.404 5.39883C10.8324 5.04586 10.174 4.8593 9.49993 4.8593C8.82601 4.8593 8.1676 5.04586 7.59588 5.39883C7.24711 5.61424 6.78991 5.5061 6.5745 5.15733C6.35909 4.80856 6.46723 4.35122 6.816 4.13596C7.62227 3.63802 8.5503 3.37492 9.49993 3.37492C10.4497 3.37492 11.3777 3.63802 12.1839 4.13596Z" fill="black"/>
</svg>
